<?xml version="1.0" encoding="UTF-8"?>
<svg id="Layer_1" data-name="Layer 1" xmlns="http://www.w3.org/2000/svg" viewBox="0 0 339.36 73.2">
  <defs>
    <style>
      .cls-1 {
        fill: #a282ef;
      }

      .cls-2 {
        fill: #fff;
      }

      .cls-3 {
        fill: #27067f;
      }
    </style>
  </defs>
  <rect class="cls-2" width="339.36" height="73.2" rx="17.5" ry="17.5"/>
  <g>
    <path class="cls-3" d="M106.72,30.54v2.37h-7.53v5.23h5.87v2.37h-5.87v7.76h-2.91v-17.73h10.43Z"/>
    <path class="cls-3" d="M109.57,31.82c-.36-.36-.54-.8-.54-1.33s.18-.97.54-1.33c.36-.36.8-.54,1.33-.54s.94.18,1.3.54.54.8.54,1.33-.18.97-.54,1.33-.79.54-1.3.54-.97-.18-1.33-.54ZM112.33,34.21v14.06h-2.91v-14.06h2.91Z"/>
    <path class="cls-3" d="M120.76,34.58c.71-.4,1.54-.6,2.51-.6v3.01h-.74c-1.14,0-2,.29-2.59.87-.59.58-.88,1.58-.88,3.01v7.4h-2.91v-14.06h2.91v2.04c.42-.71.99-1.27,1.7-1.67Z"/>
    <path class="cls-3" d="M145.94,34.67c.88.46,1.56,1.14,2.07,2.04s.75,1.99.75,3.27v8.29h-2.88v-7.86c0-1.26-.31-2.22-.94-2.9-.63-.67-1.49-1.01-2.58-1.01s-1.95.34-2.59,1.01-.96,1.64-.96,2.9v7.86h-2.88v-7.86c0-1.26-.32-2.22-.94-2.9-.63-.67-1.49-1.01-2.58-1.01s-1.95.34-2.59,1.01-.96,1.64-.96,2.9v7.86h-2.91v-14.06h2.91v1.61c.48-.58,1.08-1.03,1.81-1.35s1.51-.48,2.35-.48c1.12,0,2.13.24,3.01.71.88.48,1.56,1.17,2.04,2.07.42-.85,1.09-1.53,1.99-2.03.9-.5,1.87-.75,2.91-.75,1.11,0,2.1.23,2.97.69Z"/>
    <path class="cls-3" d="M152.37,37.43c.59-1.09,1.39-1.93,2.4-2.54s2.13-.91,3.36-.91c1.11,0,2.07.22,2.9.65.82.43,1.48.97,1.98,1.62v-2.04h2.93v14.06h-2.93v-2.09c-.49.66-1.17,1.22-2.01,1.66-.85.44-1.82.66-2.91.66-1.21,0-2.31-.31-3.32-.93s-1.8-1.49-2.38-2.6c-.59-1.11-.88-2.38-.88-3.79s.29-2.66.88-3.75ZM162.39,38.7c-.4-.71-.92-1.26-1.57-1.63-.65-.37-1.34-.56-2.09-.56s-1.45.18-2.09.55c-.65.37-1.17.9-1.57,1.61-.4.71-.6,1.54-.6,2.51s.2,1.82.6,2.55c.4.73.93,1.29,1.58,1.67.66.38,1.35.57,2.08.57s1.45-.19,2.09-.56c.65-.37,1.17-.92,1.57-1.65.4-.72.6-1.57.6-2.54s-.2-1.81-.6-2.53Z"/>
    <path class="cls-3" d="M189.17,42.33h-10.74c.08,1.12.5,2.02,1.25,2.7.75.68,1.67,1.02,2.75,1.02,1.57,0,2.67-.65,3.32-1.96h3.14c-.43,1.29-1.2,2.35-2.31,3.18-1.11.83-2.5,1.24-4.15,1.24-1.34,0-2.55-.3-3.61-.91-1.06-.6-1.9-1.45-2.5-2.55-.6-1.1-.91-2.37-.91-3.81s.29-2.72.88-3.81c.59-1.1,1.41-1.94,2.47-2.54,1.06-.6,2.28-.89,3.66-.89s2.51.29,3.55.87c1.04.58,1.84,1.39,2.42,2.44.58,1.05.87,2.25.87,3.61,0,.53-.03,1-.1,1.43ZM186.24,39.98c-.02-1.07-.4-1.93-1.15-2.58-.75-.65-1.67-.97-2.78-.97-1,0-1.86.32-2.58.96-.71.64-1.14,1.5-1.28,2.59h7.78Z"/>
    <path class="cls-3" d="M195.04,29.39v18.88h-2.91v-18.88h2.91Z"/>
    <path class="cls-3" d="M211.64,42.33h-10.74c.08,1.12.5,2.02,1.25,2.7.75.68,1.67,1.02,2.75,1.02,1.56,0,2.67-.65,3.32-1.96h3.14c-.42,1.29-1.19,2.35-2.31,3.18-1.11.83-2.5,1.24-4.15,1.24-1.34,0-2.55-.3-3.61-.91-1.06-.6-1.9-1.45-2.5-2.55-.6-1.1-.91-2.37-.91-3.81s.29-2.72.88-3.81c.59-1.1,1.41-1.94,2.47-2.54s2.28-.89,3.66-.89,2.51.29,3.55.87,1.85,1.39,2.42,2.44c.58,1.05.87,2.25.87,3.61,0,.53-.03,1-.1,1.43ZM208.71,39.98c-.02-1.07-.4-1.93-1.15-2.58-.75-.65-1.68-.97-2.78-.97-1,0-1.86.32-2.58.96-.71.64-1.14,1.5-1.28,2.59h7.78Z"/>
    <path class="cls-3" d="M214.51,37.42c.59-1.1,1.4-1.94,2.44-2.54,1.04-.6,2.23-.89,3.57-.89,1.7,0,3.11.4,4.22,1.21,1.11.81,1.87,1.96,2.26,3.46h-3.14c-.25-.7-.66-1.24-1.22-1.63-.56-.39-1.27-.59-2.12-.59-1.19,0-2.14.42-2.84,1.26-.71.84-1.06,2.02-1.06,3.53s.35,2.7,1.06,3.55,1.65,1.28,2.84,1.28c1.68,0,2.8-.74,3.34-2.22h3.14c-.41,1.43-1.17,2.56-2.3,3.41-1.12.84-2.52,1.26-4.18,1.26-1.34,0-2.53-.3-3.57-.91-1.04-.6-1.85-1.45-2.44-2.55-.59-1.1-.88-2.37-.88-3.81s.29-2.72.88-3.81Z"/>
    <path class="cls-3" d="M233.3,36.59v7.78c0,.53.12.91.37,1.14.25.23.67.34,1.26.34h1.79v2.42h-2.3c-1.31,0-2.31-.31-3.01-.92s-1.05-1.61-1.05-2.99v-7.78h-1.66v-2.37h1.66v-3.5h2.93v3.5h3.42v2.37h-3.42Z"/>
    <path class="cls-3" d="M244,34.58c.71-.4,1.54-.6,2.51-.6v3.01h-.74c-1.14,0-2,.29-2.59.87-.59.58-.88,1.58-.88,3.01v7.4h-2.91v-14.06h2.91v2.04c.42-.71.99-1.27,1.7-1.67Z"/>
    <path class="cls-3" d="M251.7,47.6c-1.07-.6-1.91-1.45-2.53-2.55-.61-1.1-.92-2.37-.92-3.81s.31-2.7.94-3.8c.63-1.11,1.49-1.96,2.58-2.55,1.09-.6,2.3-.89,3.65-.89s2.56.3,3.65.89c1.09.6,1.95,1.45,2.58,2.55.63,1.11.94,2.37.94,3.8s-.32,2.7-.97,3.8c-.65,1.11-1.53,1.96-2.64,2.56s-2.34.91-3.69.91-2.53-.3-3.6-.91ZM257.4,45.44c.66-.36,1.19-.89,1.59-1.61.41-.71.61-1.58.61-2.6s-.2-1.88-.59-2.59c-.39-.71-.91-1.24-1.56-1.59-.65-.36-1.34-.54-2.09-.54s-1.44.18-2.08.54c-.64.36-1.14.89-1.52,1.59-.37.71-.56,1.57-.56,2.59,0,1.51.39,2.68,1.16,3.51.77.83,1.75,1.24,2.92,1.24.75,0,1.45-.18,2.1-.54ZM258.05,30.21l-5.64,2.78v-2.14l5.64-3.11v2.47Z"/>
    <path class="cls-3" d="M275.54,34.67c.88.46,1.56,1.14,2.05,2.04.49.9.74,1.99.74,3.27v8.29h-2.88v-7.86c0-1.26-.31-2.22-.94-2.9-.63-.67-1.49-1.01-2.58-1.01s-1.95.34-2.59,1.01-.96,1.64-.96,2.9v7.86h-2.91v-14.06h2.91v1.61c.48-.58,1.08-1.03,1.82-1.35.74-.32,1.53-.48,2.36-.48,1.11,0,2.1.23,2.97.69Z"/>
    <path class="cls-3" d="M282.18,31.82c-.36-.36-.54-.8-.54-1.33s.18-.97.54-1.33c.36-.36.8-.54,1.33-.54s.94.18,1.3.54.54.8.54,1.33-.18.97-.54,1.33-.79.54-1.3.54-.97-.18-1.33-.54ZM284.94,34.21v14.06h-2.91v-14.06h2.91Z"/>
    <path class="cls-3" d="M288.68,37.42c.59-1.1,1.4-1.94,2.44-2.54,1.04-.6,2.23-.89,3.57-.89,1.7,0,3.11.4,4.22,1.21,1.11.81,1.87,1.96,2.26,3.46h-3.14c-.25-.7-.66-1.24-1.22-1.63-.56-.39-1.27-.59-2.12-.59-1.19,0-2.14.42-2.84,1.26-.71.84-1.06,2.02-1.06,3.53s.35,2.7,1.06,3.55,1.65,1.28,2.84,1.28c1.68,0,2.8-.74,3.34-2.22h3.14c-.41,1.43-1.17,2.56-2.3,3.41-1.12.84-2.52,1.26-4.18,1.26-1.34,0-2.53-.3-3.57-.91-1.04-.6-1.85-1.45-2.44-2.55-.59-1.1-.88-2.37-.88-3.81s.29-2.72.88-3.81Z"/>
    <path class="cls-3" d="M303.98,37.43c.59-1.09,1.39-1.93,2.4-2.54s2.13-.91,3.36-.91c1.11,0,2.07.22,2.9.65.82.43,1.48.97,1.98,1.62v-2.04h2.93v14.06h-2.93v-2.09c-.49.66-1.17,1.22-2.01,1.66-.85.44-1.82.66-2.91.66-1.21,0-2.31-.31-3.32-.93s-1.8-1.49-2.38-2.6c-.59-1.11-.88-2.38-.88-3.79s.29-2.66.88-3.75ZM314.01,38.7c-.4-.71-.92-1.26-1.57-1.63-.65-.37-1.34-.56-2.09-.56s-1.45.18-2.09.55c-.65.37-1.17.9-1.57,1.61-.4.71-.6,1.54-.6,2.51s.2,1.82.6,2.55c.4.73.93,1.29,1.58,1.67.66.38,1.35.57,2.08.57s1.45-.19,2.09-.56c.65-.37,1.17-.92,1.57-1.65.4-.72.6-1.57.6-2.54s-.2-1.81-.6-2.53Z"/>
  </g>
  <g>
    <path class="cls-1" d="M25.24,60.96l-8.77-10.09c-.85-.97-.74-2.45.23-3.3l30.99-26.92c.19-.16.42-.27.66-.32l15.12-2.8c.5-.09.99.09,1.32.47.33.38.42.9.25,1.37l-5.12,14.34c-.08.23-.22.43-.4.59l-30.98,26.89c-.97.85-2.45.74-3.3-.23ZM48.69,21.87l-30.95,26.89c-.32.27-.35.75-.08,1.07l8.77,10.09c.27.32.75.35,1.07.08h0s30.95-26.86,30.95-26.86l5-13.99-14.76,2.73Z"/>
    <path class="cls-1" d="M60.28,21.75c-1.07-1.23-.89-2.84-.88-2.86l1.57.19-.78-.1.78.09c-.04.35-.11,2.08,2.17,2.4l-.22,1.56c-1.29-.18-2.11-.69-2.64-1.29Z"/>
    <path class="cls-1" d="M48.18,25.07c-.06-.07-.12-.15-.18-.23-1.18-1.61-.58-3.74-.55-3.83l1.52.45-.76-.22.76.22s-.41,1.48.31,2.46c.48.64,1.38.98,2.68,1l-.03,1.58c-1.69-.03-2.95-.51-3.74-1.43Z"/>
    <path class="cls-1" d="M51.59,28.97c-.08-.09-.16-.19-.23-.3-1.07-1.57-.34-3.59-.31-3.68l1.48.55s-.48,1.35.14,2.25c.42.61,1.3.93,2.61.96l-.03,1.58c-1.68-.03-2.9-.49-3.66-1.36Z"/>
    <path class="cls-1" d="M55.14,32.9c-.07-.08-.13-.16-.19-.24-1.16-1.58-.64-3.61-.62-3.69l1.53.4s-.34,1.4.37,2.37c.47.64,1.35,1,2.6,1.06l-.08,1.58c-1.62-.08-2.83-.58-3.62-1.48Z"/>
    <rect class="cls-1" x="20.05" y="36.64" width="35.95" height="1.58" transform="translate(-15.23 34.11) rotate(-40.98)"/>
    <rect class="cls-1" x="23.52" y="40.63" width="35.95" height="1.58" transform="translate(-16.99 37.37) rotate(-40.98)"/>
    <rect class="cls-1" x="25.65" y="43.21" width="1.58" height="16.05" transform="translate(-27.12 29.9) rotate(-40.98)"/>
    <path class="cls-1" d="M51.92,24.92l.63-.04c.09,0,.16.08.13.17l-.21.67-.75-.28.05-.37"/>
    <path class="cls-1" d="M55.24,28.75l.63-.04c.09,0,.16.08.13.17l-.21.67-.75-.28.05-.37"/>
  </g>
</svg>