<?xml version="1.0" encoding="UTF-8"?>
<svg id="Layer_1" data-name="Layer 1" xmlns="http://www.w3.org/2000/svg" viewBox="0 0 339.36 73.2">
  <defs>
    <style>
      .cls-1 {
        fill: #a282ef;
      }

      .cls-2 {
        fill: #fff;
      }

      .cls-3 {
        fill: #27067f;
      }
    </style>
  </defs>
  <rect class="cls-2" width="339.36" height="73.2" rx="17.5" ry="17.5"/>
  <g>
    <path class="cls-3" d="M125.43,29.88c1.42.72,2.52,1.76,3.29,3.11.77,1.35,1.16,2.93,1.16,4.73s-.39,3.37-1.16,4.69c-.77,1.33-1.87,2.34-3.29,3.05s-3.07,1.06-4.96,1.06h-5.79v-17.73h5.79c1.89,0,3.54.36,4.96,1.08ZM125.24,42.47c1.11-1.12,1.66-2.7,1.66-4.75s-.55-3.67-1.66-4.82-2.7-1.74-4.77-1.74h-2.88v12.99h2.88c2.08,0,3.67-.56,4.77-1.68Z"/>
    <path class="cls-3" d="M135.26,45.85c-1.07-.6-1.91-1.45-2.53-2.55-.61-1.1-.92-2.37-.92-3.81s.32-2.7.94-3.8c.63-1.11,1.49-1.96,2.58-2.55,1.09-.6,2.3-.89,3.65-.89s2.56.3,3.65.89c1.09.6,1.95,1.45,2.58,2.55.63,1.11.94,2.37.94,3.8s-.32,2.7-.97,3.8c-.65,1.11-1.53,1.96-2.64,2.56-1.11.6-2.34.91-3.69.91s-2.53-.3-3.6-.91ZM140.96,43.69c.65-.36,1.19-.89,1.59-1.61.41-.71.61-1.58.61-2.6s-.2-1.88-.59-2.59c-.39-.71-.91-1.24-1.56-1.59-.65-.36-1.34-.54-2.09-.54s-1.44.18-2.08.54c-.64.36-1.14.89-1.52,1.59-.38.71-.56,1.57-.56,2.59,0,1.51.39,2.68,1.16,3.51.77.83,1.75,1.24,2.92,1.24.75,0,1.45-.18,2.1-.54Z"/>
    <path class="cls-3" d="M148.95,35.67c.59-1.1,1.4-1.94,2.44-2.54,1.04-.6,2.23-.89,3.57-.89,1.7,0,3.11.4,4.22,1.21,1.11.81,1.87,1.96,2.26,3.46h-3.14c-.25-.7-.66-1.24-1.22-1.63-.56-.39-1.27-.59-2.12-.59-1.19,0-2.14.42-2.84,1.26-.71.84-1.06,2.02-1.06,3.53s.35,2.7,1.06,3.55,1.65,1.28,2.84,1.28c1.68,0,2.8-.74,3.34-2.22h3.14c-.41,1.43-1.17,2.56-2.3,3.41-1.12.84-2.52,1.26-4.18,1.26-1.34,0-2.53-.3-3.57-.91-1.04-.6-1.85-1.45-2.44-2.55-.59-1.1-.88-2.37-.88-3.81s.29-2.72.88-3.81Z"/>
    <path class="cls-3" d="M177.08,32.47v14.06h-2.91v-1.66c-.46.58-1.06,1.03-1.8,1.37-.74.33-1.53.5-2.36.5-1.11,0-2.1-.23-2.97-.69-.88-.46-1.56-1.14-2.07-2.04s-.75-1.99-.75-3.27v-8.27h2.88v7.83c0,1.26.32,2.22.94,2.9s1.49,1.01,2.58,1.01,1.95-.34,2.59-1.01.96-1.64.96-2.9v-7.83h2.91Z"/>
    <path class="cls-3" d="M200.89,32.93c.88.46,1.56,1.14,2.07,2.04s.75,1.99.75,3.27v8.29h-2.88v-7.86c0-1.26-.31-2.22-.94-2.9-.63-.67-1.49-1.01-2.58-1.01s-1.95.34-2.59,1.01-.96,1.64-.96,2.9v7.86h-2.88v-7.86c0-1.26-.32-2.22-.94-2.9-.63-.67-1.49-1.01-2.58-1.01s-1.95.34-2.59,1.01-.96,1.64-.96,2.9v7.86h-2.91v-14.06h2.91v1.61c.48-.58,1.08-1.03,1.81-1.35s1.51-.48,2.35-.48c1.12,0,2.13.24,3.01.71.88.48,1.56,1.17,2.04,2.07.42-.85,1.09-1.53,1.99-2.03.9-.5,1.87-.75,2.91-.75,1.11,0,2.1.23,2.97.69Z"/>
    <path class="cls-3" d="M220.19,40.58h-10.74c.08,1.12.5,2.02,1.25,2.7.75.68,1.67,1.02,2.75,1.02,1.56,0,2.67-.65,3.32-1.96h3.14c-.42,1.29-1.19,2.35-2.31,3.18-1.11.83-2.5,1.24-4.15,1.24-1.34,0-2.55-.3-3.61-.91-1.06-.6-1.9-1.45-2.5-2.55-.6-1.1-.91-2.37-.91-3.81s.29-2.72.88-3.81c.59-1.1,1.41-1.94,2.47-2.54s2.28-.89,3.66-.89,2.51.29,3.55.87,1.85,1.39,2.42,2.44c.58,1.05.87,2.25.87,3.61,0,.53-.03,1-.1,1.43ZM217.26,38.23c-.02-1.07-.4-1.93-1.15-2.58-.75-.65-1.68-.97-2.78-.97-1,0-1.86.32-2.58.96-.71.64-1.14,1.5-1.28,2.59h7.78Z"/>
    <path class="cls-3" d="M233.21,32.93c.88.46,1.56,1.14,2.05,2.04s.74,1.99.74,3.27v8.29h-2.88v-7.86c0-1.26-.32-2.22-.94-2.9-.63-.67-1.49-1.01-2.58-1.01s-1.95.34-2.59,1.01-.96,1.64-.96,2.9v7.86h-2.91v-14.06h2.91v1.61c.48-.58,1.08-1.03,1.82-1.35s1.53-.48,2.36-.48c1.1,0,2.1.23,2.97.69Z"/>
    <path class="cls-3" d="M243.1,34.84v7.78c0,.53.12.91.37,1.14.25.23.67.34,1.26.34h1.79v2.42h-2.3c-1.31,0-2.31-.31-3.01-.92s-1.05-1.61-1.05-2.99v-7.78h-1.66v-2.37h1.66v-3.5h2.93v3.5h3.42v2.37h-3.42Z"/>
    <path class="cls-3" d="M249.11,35.68c.59-1.09,1.39-1.93,2.4-2.54s2.13-.91,3.36-.91c1.11,0,2.07.22,2.9.65.82.43,1.48.97,1.98,1.62v-2.04h2.93v14.06h-2.93v-2.09c-.49.66-1.17,1.22-2.01,1.66-.85.44-1.82.66-2.91.66-1.21,0-2.31-.31-3.32-.93s-1.8-1.49-2.38-2.6c-.59-1.11-.88-2.38-.88-3.79s.29-2.66.88-3.75ZM259.13,36.96c-.4-.71-.92-1.26-1.57-1.63-.65-.37-1.34-.56-2.09-.56s-1.45.18-2.09.55c-.65.37-1.17.9-1.57,1.61-.4.71-.6,1.54-.6,2.51s.2,1.82.6,2.55c.4.73.93,1.29,1.58,1.67.66.38,1.35.57,2.08.57s1.45-.19,2.09-.56c.65-.37,1.17-.92,1.57-1.65.4-.72.6-1.57.6-2.54s-.2-1.81-.6-2.53Z"/>
    <path class="cls-3" d="M266.4,35.67c.59-1.1,1.4-1.94,2.44-2.54,1.04-.6,2.23-.89,3.57-.89,1.7,0,3.11.4,4.22,1.21,1.11.81,1.87,1.96,2.26,3.46h-3.14c-.25-.7-.66-1.24-1.22-1.63-.56-.39-1.27-.59-2.12-.59-1.19,0-2.14.42-2.84,1.26-.71.84-1.06,2.02-1.06,3.53s.35,2.7,1.06,3.55,1.65,1.28,2.84,1.28c1.68,0,2.8-.74,3.34-2.22h3.14c-.41,1.43-1.17,2.56-2.3,3.41-1.12.84-2.52,1.26-4.18,1.26-1.34,0-2.53-.3-3.57-.91-1.04-.6-1.85-1.45-2.44-2.55-.59-1.1-.88-2.37-.88-3.81s.29-2.72.88-3.81Z"/>
    <path class="cls-3" d="M281.95,30.07c-.36-.36-.54-.8-.54-1.33s.18-.97.54-1.33c.36-.36.8-.54,1.33-.54s.94.18,1.3.54.54.8.54,1.33-.18.97-.54,1.33-.79.54-1.3.54-.97-.18-1.33-.54ZM284.71,32.47v14.06h-2.91v-14.06h2.91Z"/>
    <path class="cls-3" d="M291.03,45.85c-1.07-.6-1.91-1.45-2.53-2.55-.61-1.1-.92-2.37-.92-3.81s.32-2.7.94-3.8c.63-1.11,1.49-1.96,2.58-2.55,1.09-.6,2.3-.89,3.65-.89s2.56.3,3.65.89c1.09.6,1.95,1.45,2.58,2.55.63,1.11.94,2.37.94,3.8s-.32,2.7-.97,3.8c-.65,1.11-1.53,1.96-2.64,2.56-1.11.6-2.34.91-3.69.91s-2.53-.3-3.6-.91ZM296.74,43.69c.65-.36,1.19-.89,1.59-1.61.41-.71.61-1.58.61-2.6s-.2-1.88-.59-2.59c-.39-.71-.91-1.24-1.56-1.59-.65-.36-1.34-.54-2.09-.54s-1.44.18-2.08.54c-.64.36-1.14.89-1.52,1.59-.38.71-.56,1.57-.56,2.59,0,1.51.39,2.68,1.16,3.51.77.83,1.75,1.24,2.92,1.24.75,0,1.45-.18,2.1-.54ZM297.39,28.46l-5.64,2.78v-2.14l5.64-3.11v2.47Z"/>
    <path class="cls-3" d="M314.88,32.93c.88.46,1.56,1.14,2.05,2.04.49.9.74,1.99.74,3.27v8.29h-2.88v-7.86c0-1.26-.31-2.22-.94-2.9-.63-.67-1.49-1.01-2.58-1.01s-1.95.34-2.59,1.01-.96,1.64-.96,2.9v7.86h-2.91v-14.06h2.91v1.61c.48-.58,1.08-1.03,1.82-1.35.74-.32,1.53-.48,2.36-.48,1.11,0,2.1.23,2.97.69Z"/>
  </g>
  <g>
    <path class="cls-1" d="M58.42,54.74H21.16c-3.58,0-6.5-2.92-6.5-6.5v-24.19c0-3.58,2.92-6.5,6.5-6.5h37.26c3.58,0,6.5,2.92,6.5,6.5v7.39c0,.49-.39.88-.88.88s-.88-.39-.88-.88v-7.39c0-2.61-2.13-4.74-4.74-4.74H21.16c-2.61,0-4.74,2.13-4.74,4.74v24.19c0,2.61,2.13,4.74,4.74,4.74h37.26c2.61,0,4.74-2.13,4.74-4.74v-6.25c0-.49.39-.88.88-.88s.88.39.88.88v6.25c0,3.58-2.92,6.5-6.5,6.5Z"/>
    <path class="cls-1" d="M62.34,42.7h-13.39c-3.3,0-5.99-2.68-5.99-5.99s2.69-5.99,5.99-5.99h13.39c3.3,0,5.99,2.69,5.99,5.99s-2.69,5.99-5.99,5.99ZM48.95,32.49c-2.33,0-4.23,1.9-4.23,4.23s1.9,4.23,4.23,4.23h13.39c2.33,0,4.23-1.9,4.23-4.23s-1.9-4.23-4.23-4.23h-13.39Z"/>
    <circle class="cls-1" cx="49.48" cy="36.72" r="2.42"/>
  </g>
</svg>