<?xml version="1.0" encoding="UTF-8"?>
<svg id="Layer_1" data-name="Layer 1" xmlns="http://www.w3.org/2000/svg" viewBox="0 0 247.97 57.58">
  <defs>
    <style>
      .cls-1 {
        fill: #fff;
      }
    </style>
  </defs>
  <g>
    <path class="cls-1" d="M99.99,37.07l-3.78-6.57h-2.06v6.57h-2.7v-16.43h5.67c1.26,0,2.33.22,3.2.66.87.44,1.53,1.03,1.96,1.77.43.74.65,1.57.65,2.48,0,1.07-.31,2.05-.93,2.92-.62.88-1.58,1.47-2.87,1.78l4.07,6.81h-3.22ZM94.15,28.34h2.98c1.01,0,1.77-.25,2.28-.76.51-.51.77-1.18.77-2.03s-.25-1.52-.76-2c-.5-.48-1.27-.72-2.29-.72h-2.98v5.51Z"/>
    <path class="cls-1" d="M118.25,31.56h-9.95c.08,1.04.46,1.88,1.16,2.51.69.63,1.54.95,2.55.95,1.45,0,2.47-.61,3.07-1.82h2.91c-.39,1.2-1.11,2.18-2.14,2.94-1.03.77-2.31,1.15-3.84,1.15-1.25,0-2.36-.28-3.35-.84-.99-.56-1.76-1.35-2.32-2.36-.56-1.02-.84-2.19-.84-3.53s.27-2.52.82-3.53c.54-1.02,1.31-1.8,2.29-2.35.98-.55,2.12-.83,3.39-.83s2.32.27,3.29.8c.96.54,1.71,1.29,2.25,2.26s.8,2.08.8,3.34c0,.49-.03.93-.09,1.32ZM115.53,29.38c-.02-.99-.37-1.79-1.06-2.39-.69-.6-1.55-.9-2.58-.9-.93,0-1.73.3-2.39.89-.66.59-1.06,1.39-1.18,2.4h7.21Z"/>
    <path class="cls-1" d="M120.9,27.02c.54-1.01,1.28-1.79,2.22-2.35.94-.56,1.97-.84,3.11-.84,1.02,0,1.92.2,2.68.6s1.37.9,1.83,1.5v-1.89h2.72v13.03h-2.72v-1.94c-.46.62-1.08,1.13-1.87,1.54-.79.41-1.69.62-2.7.62-1.12,0-2.14-.29-3.07-.86-.93-.57-1.67-1.38-2.21-2.41-.54-1.03-.82-2.2-.82-3.51s.27-2.47.82-3.47ZM130.2,28.2c-.37-.66-.86-1.17-1.45-1.51-.6-.35-1.25-.52-1.94-.52s-1.34.17-1.94.51c-.6.34-1.08.84-1.45,1.49-.37.65-.56,1.43-.56,2.33s.19,1.69.56,2.36c.37.68.86,1.19,1.47,1.55s1.25.53,1.93.53,1.34-.17,1.94-.52c.6-.35,1.08-.85,1.45-1.52.37-.67.56-1.45.56-2.35s-.19-1.68-.56-2.34Z"/>
    <path class="cls-1" d="M136.93,27.01c.54-1.02,1.3-1.8,2.26-2.35.96-.55,2.06-.83,3.31-.83,1.58,0,2.88.37,3.91,1.12,1.03.75,1.73,1.82,2.09,3.2h-2.91c-.24-.65-.62-1.15-1.13-1.51-.52-.36-1.17-.54-1.96-.54-1.1,0-1.98.39-2.64,1.17-.65.78-.98,1.87-.98,3.27s.33,2.5.98,3.29c.65.79,1.53,1.18,2.64,1.18,1.56,0,2.59-.69,3.1-2.06h2.91c-.38,1.32-1.09,2.38-2.13,3.16-1.04.78-2.33,1.17-3.88,1.17-1.25,0-2.35-.28-3.31-.84-.96-.56-1.71-1.35-2.26-2.36-.54-1.02-.82-2.19-.82-3.53s.27-2.52.82-3.53Z"/>
    <path class="cls-1" d="M151.12,27.01c.54-1.02,1.3-1.8,2.26-2.35.96-.55,2.06-.83,3.31-.83,1.58,0,2.88.37,3.91,1.12,1.03.75,1.73,1.82,2.09,3.2h-2.91c-.24-.65-.62-1.15-1.13-1.51-.52-.36-1.17-.54-1.96-.54-1.1,0-1.98.39-2.64,1.17-.65.78-.98,1.87-.98,3.27s.33,2.5.98,3.29c.65.79,1.53,1.18,2.64,1.18,1.56,0,2.59-.69,3.1-2.06h2.91c-.38,1.32-1.09,2.38-2.13,3.16-1.04.78-2.33,1.17-3.88,1.17-1.25,0-2.35-.28-3.31-.84-.96-.56-1.71-1.35-2.26-2.36-.54-1.02-.82-2.19-.82-3.53s.27-2.52.82-3.53Z"/>
    <path class="cls-1" d="M165.53,21.82c-.33-.33-.5-.74-.5-1.23s.16-.9.5-1.23.74-.5,1.23-.5.87.17,1.21.5c.33.33.5.74.5,1.23s-.17.9-.5,1.23c-.33.33-.73.5-1.21.5s-.9-.17-1.23-.5ZM168.08,24.04v13.03h-2.7v-13.03h2.7Z"/>
    <path class="cls-1" d="M173.94,36.44c-.99-.56-1.77-1.35-2.34-2.36-.57-1.02-.85-2.19-.85-3.53s.29-2.5.87-3.52,1.38-1.81,2.39-2.36c1.01-.55,2.14-.83,3.38-.83s2.37.28,3.38.83c1.01.55,1.8,1.34,2.39,2.36s.87,2.2.87,3.52-.3,2.5-.9,3.52c-.6,1.03-1.41,1.82-2.45,2.38s-2.17.84-3.42.84-2.34-.28-3.33-.84ZM179.23,34.44c.61-.33,1.1-.83,1.48-1.49.38-.66.57-1.47.57-2.41s-.18-1.75-.54-2.4c-.36-.65-.84-1.15-1.44-1.48-.6-.33-1.25-.5-1.94-.5s-1.34.17-1.93.5c-.59.33-1.06.82-1.41,1.48-.35.65-.52,1.45-.52,2.4,0,1.4.36,2.49,1.08,3.25.72.76,1.62,1.15,2.71,1.15.69,0,1.34-.17,1.95-.5Z"/>
    <path class="cls-1" d="M196.04,24.47c.81.43,1.45,1.06,1.9,1.89.46.84.69,1.84.69,3.03v7.68h-2.67v-7.28c0-1.17-.29-2.06-.87-2.68s-1.38-.93-2.39-.93-1.81.31-2.4.93c-.59.62-.89,1.52-.89,2.68v7.28h-2.7v-13.03h2.7v1.49c.44-.54,1-.95,1.69-1.25.69-.3,1.41-.45,2.19-.45,1.02,0,1.94.21,2.75.64Z"/>
    <path class="cls-1" d="M201.97,27.02c.54-1.01,1.28-1.79,2.22-2.35.94-.56,1.97-.84,3.11-.84,1.02,0,1.92.2,2.68.6s1.37.9,1.83,1.5v-1.89h2.72v13.03h-2.72v-1.94c-.46.62-1.08,1.13-1.87,1.54-.79.41-1.69.62-2.7.62-1.12,0-2.14-.29-3.07-.86-.93-.57-1.67-1.38-2.21-2.41-.54-1.03-.82-2.2-.82-3.51s.27-2.47.82-3.47ZM211.26,28.2c-.37-.66-.86-1.17-1.45-1.51-.6-.35-1.25-.52-1.94-.52s-1.34.17-1.94.51c-.6.34-1.08.84-1.45,1.49-.37.65-.56,1.43-.56,2.33s.19,1.69.56,2.36c.37.68.86,1.19,1.47,1.55s1.25.53,1.93.53,1.34-.17,1.94-.52c.6-.35,1.08-.85,1.45-1.52.37-.67.56-1.45.56-2.35s-.19-1.68-.56-2.34Z"/>
    <path class="cls-1" d="M222.35,24.38c.65-.37,1.43-.55,2.33-.55v2.79h-.69c-1.06,0-1.86.27-2.4.8-.54.54-.82,1.47-.82,2.79v6.86h-2.7v-13.03h2.7v1.89c.39-.66.92-1.18,1.57-1.55Z"/>
  </g>
  <path class="cls-1" d="M229.75,57.58H18.22C8.18,57.58,0,49.4,0,39.35v-21.13C0,8.18,8.18,0,18.22,0h211.52c10.05,0,18.22,8.18,18.22,18.22v21.13c0,10.05-8.18,18.23-18.22,18.23ZM18.22,2.06C9.31,2.06,2.06,9.31,2.06,18.22v21.13c0,8.91,7.25,16.16,16.16,16.16h211.52c8.91,0,16.16-7.25,16.16-16.16v-21.13c0-8.91-7.25-16.16-16.16-16.16H18.22Z"/>
  <g>
    <g>
      <path class="cls-1" d="M42.13,43.2h-17.7c-1.67,0-3.02-1.36-3.02-3.02v-10.05c0-1.59,1.24-2.91,2.83-3.02.01,0,.02,0,.03,0h5.36l5.29-6.6s.01-.02.02-.03c.01-.01,1.28-1.42,1.28-3.24,0-.43-.07-.91-.14-1.38-.15-1.05-.31-2.13.34-2.85.45-.5,1.21-.72,2.32-.67,1.6.07,2.8,1.12,3.48,3.02.43,1.21.56,2.57.37,3.94l-.55,4h6.26c.76,0,2.25.38,2.46,1.8.23,1.63-.42,2.43-1.24,2.82.47.53,1.01,1.38,1.01,2.51,0,1.26-.66,2.12-1.99,2.57.71.49,1.29,1.27,1.2,2.42-.05.69-.32,1.24-.8,1.64-.34.29-.75.46-1.13.55.67.68,1.37,1.72.86,2.81-.9,1.94-2.85,2.76-6.54,2.76ZM24.28,28.11c-1.06.08-1.88.96-1.88,2.02v10.05c0,1.12.91,2.03,2.03,2.03h17.7c4.07,0,5.14-1.11,5.64-2.19.49-1.05-1.45-2.35-1.47-2.36-.19-.12-.27-.36-.2-.58.08-.22.29-.35.52-.33,0,0,1.07.09,1.69-.44.27-.23.41-.54.44-.95.12-1.61-1.87-2.01-1.96-2.02-.24-.05-.42-.26-.4-.51s.2-.45.45-.47c2.39-.23,2.7-1.14,2.7-1.91,0-1.44-1.26-2.31-1.27-2.32-.17-.11-.25-.32-.21-.52.04-.2.2-.35.4-.39,1.13-.19,1.5-.75,1.32-1.97-.13-.93-1.42-.95-1.47-.95h-6.83c-.14,0-.28-.06-.37-.17-.09-.11-.14-.25-.12-.39l.63-4.56c.17-1.21.06-2.41-.32-3.47-.54-1.51-1.41-2.31-2.59-2.36-.78-.04-1.3.08-1.54.34-.34.37-.22,1.18-.09,2.04.07.5.15,1.01.15,1.52,0,2.13-1.37,3.72-1.53,3.9l-5.43,6.78c-.09.12-.24.19-.39.19h-5.58Z"/>
      <path class="cls-1" d="M42.13,43.54h-17.7c-1.86,0-3.37-1.51-3.37-3.36v-10.05c0-1.77,1.38-3.24,3.15-3.36h5.24s5.18-6.47,5.18-6.47c.05-.06,1.23-1.39,1.23-3.05,0-.41-.07-.87-.13-1.31-.16-1.09-.34-2.3.42-3.14.53-.58,1.36-.84,2.59-.78,1.75.08,3.06,1.2,3.79,3.25.45,1.26.58,2.68.38,4.1l-.5,3.61h5.87c.86,0,2.56.44,2.8,2.1.23,1.64-.38,2.51-1.06,2.97.42.57.83,1.38.83,2.41,0,1.21-.57,2.12-1.67,2.67.52.51.97,1.26.89,2.34-.06.78-.37,1.41-.92,1.87-.22.18-.47.33-.75.45.78.95.98,1.91.57,2.8-.96,2.08-3.01,2.96-6.85,2.96ZM24.26,27.46c-1.42.09-2.52,1.26-2.52,2.67v10.05c0,1.48,1.2,2.68,2.68,2.68h17.7c3.53,0,5.39-.77,6.23-2.56.42-.91-.2-1.82-.79-2.43l-.42-.43.58-.15c.4-.1.73-.26.99-.48.4-.34.63-.81.67-1.4.07-.86-.29-1.57-1.06-2.11l-.55-.39.64-.22c1.18-.41,1.76-1.14,1.76-2.25,0-1.03-.5-1.81-.92-2.28l-.31-.34.42-.2c.88-.42,1.23-1.22,1.05-2.46-.17-1.19-1.46-1.51-2.12-1.51h-6.66l.6-4.39c.18-1.31.06-2.62-.35-3.78-.44-1.23-1.34-2.71-3.17-2.79-1-.05-1.67.13-2.05.56-.54.6-.4,1.6-.25,2.57.07.48.14.97.14,1.43,0,1.94-1.32,3.41-1.37,3.47l-5.4,6.74h-5.52ZM42.13,42.55h-17.7c-1.31,0-2.37-1.06-2.37-2.37v-10.05c0-1.24.97-2.28,2.2-2.37h5.6s.09-.02.12-.06l5.42-6.77c.16-.18,1.46-1.68,1.46-3.68,0-.48-.07-.98-.14-1.46-.14-.95-.27-1.84.18-2.33.32-.35.91-.49,1.81-.45,1.33.06,2.31.93,2.9,2.59.4,1.11.51,2.37.34,3.63l-.63,4.56s0,.09.04.12c.03.04.07.06.12.06h6.83c.61,0,1.67.26,1.81,1.24.2,1.41-.29,2.13-1.6,2.36-.06.01-.11.06-.12.12-.01.06.01.13.06.16.15.11,1.42,1.06,1.42,2.6,0,1.34-.95,2.05-3.01,2.25-.08,0-.13.07-.14.15,0,.08.05.14.12.16.88.17,2.35.87,2.23,2.39-.04.5-.23.9-.56,1.19-.67.57-1.72.53-1.93.52-.08-.02-.15.03-.17.1-.02.07,0,.14.06.18.02.01,2.21,1.45,1.59,2.79-.55,1.18-1.68,2.39-5.95,2.39ZM24.29,28.45c-.87.07-1.55.8-1.55,1.68v10.05c0,.93.76,1.69,1.68,1.69h17.7c3.88,0,4.87-1.01,5.33-1.99.28-.6-.79-1.56-1.35-1.93-.32-.21-.46-.61-.33-.98.13-.37.49-.59.87-.56.34.02,1.04-.03,1.43-.36.2-.17.3-.39.32-.72.1-1.3-1.61-1.65-1.68-1.66-.41-.08-.7-.45-.68-.86.02-.41.34-.76.76-.8,2.39-.23,2.39-1.13,2.39-1.56,0-1.2-1.01-1.96-1.13-2.04-.28-.19-.42-.53-.35-.87.07-.34.34-.59.68-.65.93-.16,1.19-.55,1.04-1.59-.09-.64-1.12-.65-1.13-.65h-6.83c-.24,0-.47-.11-.63-.29-.16-.18-.23-.42-.2-.67l.63-4.56c.16-1.16.05-2.3-.3-3.31-.49-1.39-1.24-2.08-2.28-2.13-.91-.04-1.19.14-1.27.23-.23.25-.11,1.05,0,1.76.08.52.15,1.05.15,1.57,0,2.26-1.46,3.94-1.62,4.13l-5.41,6.76c-.16.2-.4.31-.66.31h-5.57Z"/>
    </g>
    <g>
      <path class="cls-1" d="M29.86,43.2c-.27,0-.5-.22-.5-.5v-15.09c0-.27.22-.5.5-.5s.5.22.5.5v15.09c0,.27-.22.5-.5.5Z"/>
      <path class="cls-1" d="M29.86,43.54c-.46,0-.84-.38-.84-.84v-15.09c0-.46.38-.84.84-.84s.84.38.84.84v15.09c0,.46-.38.84-.84.84ZM29.86,27.46c-.09,0-.15.07-.15.15v15.09c0,.17.31.17.31,0v-15.09c0-.09-.07-.15-.15-.15Z"/>
    </g>
  </g>
</svg>