<?xml version="1.0" encoding="UTF-8"?>
<svg id="Layer_1" data-name="Layer 1" xmlns="http://www.w3.org/2000/svg" viewBox="0 0 339.36 73.2">
  <defs>
    <style>
      .cls-1 {
        fill: #a282ef;
      }

      .cls-2 {
        fill: #fff;
      }

      .cls-3 {
        fill: #27067f;
      }
    </style>
  </defs>
  <rect class="cls-2" width="339.36" height="73.2" rx="17.5" ry="17.5"/>
  <g>
    <path class="cls-3" d="M108.78,46.31l-4.08-7.09h-2.22v7.09h-2.91v-17.73h6.12c1.36,0,2.51.24,3.46.71.94.48,1.65,1.11,2.12,1.91.47.8.7,1.69.7,2.68,0,1.16-.34,2.21-1.01,3.15-.67.94-1.71,1.59-3.1,1.93l4.39,7.35h-3.47ZM102.48,36.89h3.21c1.09,0,1.91-.27,2.46-.82.55-.54.83-1.28.83-2.19s-.27-1.64-.82-2.16c-.54-.52-1.37-.78-2.47-.78h-3.21v5.94Z"/>
    <path class="cls-3" d="M128.48,40.36h-10.74c.08,1.12.5,2.02,1.25,2.7.75.68,1.67,1.02,2.75,1.02,1.56,0,2.67-.65,3.32-1.96h3.14c-.43,1.29-1.19,2.35-2.31,3.18-1.11.83-2.5,1.24-4.15,1.24-1.34,0-2.55-.3-3.61-.91s-1.9-1.45-2.5-2.55c-.6-1.1-.91-2.37-.91-3.81s.29-2.72.88-3.81c.59-1.1,1.41-1.94,2.47-2.54,1.06-.6,2.28-.89,3.66-.89s2.51.29,3.55.87c1.04.58,1.85,1.39,2.42,2.44.58,1.05.87,2.25.87,3.61,0,.53-.03,1-.1,1.43ZM125.54,38.02c-.02-1.07-.4-1.93-1.15-2.58s-1.68-.97-2.78-.97c-1,0-1.86.32-2.58.96s-1.14,1.5-1.28,2.59h7.78Z"/>
    <path class="cls-3" d="M131.35,35.45c.59-1.1,1.4-1.94,2.44-2.54s2.23-.89,3.57-.89c1.7,0,3.11.4,4.22,1.21,1.11.81,1.87,1.96,2.26,3.46h-3.14c-.26-.7-.66-1.24-1.22-1.63-.56-.39-1.27-.59-2.12-.59-1.19,0-2.14.42-2.84,1.26-.71.84-1.06,2.02-1.06,3.53s.35,2.7,1.06,3.55c.71.85,1.65,1.28,2.84,1.28,1.68,0,2.8-.74,3.34-2.22h3.14c-.41,1.43-1.17,2.56-2.3,3.41s-2.52,1.26-4.18,1.26c-1.34,0-2.53-.3-3.57-.91s-1.85-1.45-2.44-2.55c-.59-1.1-.88-2.37-.88-3.81s.29-2.72.88-3.81Z"/>
    <path class="cls-3" d="M146.9,29.85c-.36-.36-.54-.8-.54-1.33s.18-.97.54-1.33c.36-.36.8-.54,1.33-.54s.94.18,1.3.54c.36.36.54.8.54,1.33s-.18.97-.54,1.33c-.36.36-.79.54-1.3.54s-.97-.18-1.33-.54ZM149.65,32.25v14.06h-2.91v-14.06h2.91Z"/>
    <path class="cls-3" d="M158.41,32.67c.86-.43,1.81-.65,2.87-.65,1.24,0,2.36.3,3.37.89s1.79,1.44,2.37,2.54c.58,1.1.87,2.35.87,3.76s-.29,2.67-.87,3.79-1.37,1.98-2.39,2.6c-1.01.62-2.13.93-3.35.93-1.09,0-2.05-.21-2.9-.64-.84-.42-1.51-.97-2-1.63v2.04h-2.91v-18.88h2.91v6.91c.49-.68,1.17-1.24,2.03-1.67ZM164.33,36.7c-.4-.71-.93-1.24-1.58-1.61-.65-.37-1.36-.55-2.1-.55s-1.42.19-2.08.56-1.18.92-1.58,1.63c-.4.71-.6,1.56-.6,2.53s.2,1.82.6,2.54c.4.72.93,1.27,1.58,1.65s1.35.56,2.08.56,1.45-.19,2.1-.57c.65-.38,1.18-.94,1.58-1.67.4-.73.6-1.58.6-2.55s-.2-1.81-.6-2.51Z"/>
    <path class="cls-3" d="M173.27,45.63c-1.07-.6-1.91-1.45-2.53-2.55-.61-1.1-.92-2.37-.92-3.81s.31-2.7.94-3.8c.63-1.11,1.49-1.96,2.58-2.55,1.09-.6,2.3-.89,3.65-.89s2.56.3,3.65.89c1.09.6,1.95,1.45,2.58,2.55.63,1.11.94,2.37.94,3.8s-.32,2.7-.97,3.8c-.65,1.11-1.53,1.96-2.64,2.56-1.11.6-2.34.91-3.69.91s-2.53-.3-3.6-.91ZM178.98,43.48c.65-.36,1.19-.89,1.59-1.61.41-.71.61-1.58.61-2.6s-.2-1.88-.59-2.59c-.39-.71-.91-1.24-1.56-1.59-.65-.36-1.34-.54-2.09-.54s-1.44.18-2.08.54c-.64.36-1.14.89-1.52,1.59-.37.71-.56,1.57-.56,2.59,0,1.51.39,2.68,1.16,3.51.77.83,1.75,1.24,2.92,1.24.75,0,1.45-.18,2.1-.54Z"/>
    <path class="cls-3" d="M193.59,35.46c.59-1.09,1.39-1.93,2.4-2.54,1.01-.6,2.14-.91,3.38-.91.92,0,1.82.2,2.72.6.89.4,1.6.93,2.13,1.59v-6.79h2.93v18.88h-2.93v-2.12c-.48.68-1.14,1.24-1.98,1.68s-1.81.66-2.9.66c-1.22,0-2.34-.31-3.35-.93-1.01-.62-1.81-1.49-2.4-2.6-.59-1.11-.88-2.38-.88-3.79s.29-2.66.88-3.75ZM203.62,36.74c-.4-.71-.92-1.26-1.57-1.63-.65-.37-1.34-.56-2.09-.56s-1.45.18-2.09.55c-.65.37-1.17.9-1.57,1.61-.4.71-.6,1.54-.6,2.51s.2,1.82.6,2.55c.4.73.93,1.29,1.58,1.67s1.35.57,2.08.57,1.45-.19,2.09-.56c.65-.37,1.17-.92,1.57-1.65.4-.72.6-1.57.6-2.54s-.2-1.81-.6-2.53Z"/>
    <path class="cls-3" d="M223.76,40.36h-10.74c.08,1.12.5,2.02,1.25,2.7.75.68,1.67,1.02,2.75,1.02,1.56,0,2.67-.65,3.32-1.96h3.14c-.43,1.29-1.19,2.35-2.31,3.18-1.11.83-2.5,1.24-4.15,1.24-1.34,0-2.55-.3-3.61-.91s-1.9-1.45-2.5-2.55c-.6-1.1-.91-2.37-.91-3.81s.29-2.72.88-3.81c.59-1.1,1.41-1.94,2.47-2.54,1.06-.6,2.28-.89,3.66-.89s2.51.29,3.55.87c1.04.58,1.85,1.39,2.42,2.44.58,1.05.87,2.25.87,3.61,0,.53-.03,1-.1,1.43ZM220.83,38.02c-.02-1.07-.4-1.93-1.15-2.58s-1.68-.97-2.78-.97c-1,0-1.86.32-2.58.96s-1.14,1.5-1.28,2.59h7.78Z"/>
    <path class="cls-3" d="M235.98,45.86c-.95-.42-1.7-1.01-2.25-1.77s-.82-1.66-.82-2.68h3.11c.07.77.37,1.39.91,1.89.54.49,1.29.74,2.26.74s1.79-.24,2.35-.73c.56-.48.84-1.11.84-1.88,0-.59-.17-1.08-.52-1.45-.35-.37-.78-.66-1.3-.87-.52-.2-1.24-.42-2.16-.66-1.16-.31-2.1-.62-2.82-.93-.72-.31-1.34-.8-1.85-1.47s-.77-1.55-.77-2.65c0-1.02.25-1.91.77-2.68s1.22-1.35,2.14-1.76,1.98-.61,3.19-.61c1.72,0,3.13.43,4.22,1.29,1.1.86,1.71,2.04,1.82,3.53h-3.21c-.05-.65-.36-1.2-.92-1.66-.56-.46-1.3-.69-2.22-.69-.83,0-1.51.21-2.04.64s-.79,1.04-.79,1.84c0,.54.17.99.5,1.34.33.35.75.62,1.26.83s1.21.43,2.09.66c1.17.32,2.13.65,2.87.97.74.32,1.37.82,1.89,1.49.52.67.78,1.57.78,2.69,0,.9-.24,1.75-.73,2.55-.48.8-1.19,1.44-2.12,1.93-.93.49-2.02.73-3.28.73-1.19,0-2.26-.21-3.21-.62Z"/>
    <path class="cls-3" d="M261.49,32.25v14.06h-2.91v-1.66c-.46.58-1.06,1.03-1.8,1.37-.74.33-1.53.5-2.36.5-1.11,0-2.1-.23-2.97-.69-.88-.46-1.56-1.14-2.07-2.04-.5-.9-.75-1.99-.75-3.27v-8.27h2.88v7.83c0,1.26.31,2.22.94,2.9.63.67,1.49,1.01,2.58,1.01s1.95-.34,2.59-1.01.96-1.64.96-2.9v-7.83h2.91Z"/>
    <path class="cls-3" d="M278.1,40.36h-10.74c.08,1.12.5,2.02,1.25,2.7.75.68,1.67,1.02,2.75,1.02,1.56,0,2.67-.65,3.32-1.96h3.14c-.43,1.29-1.19,2.35-2.31,3.18-1.11.83-2.5,1.24-4.15,1.24-1.34,0-2.55-.3-3.61-.91s-1.9-1.45-2.5-2.55c-.6-1.1-.91-2.37-.91-3.81s.29-2.72.88-3.81c.59-1.1,1.41-1.94,2.47-2.54,1.06-.6,2.28-.89,3.66-.89s2.51.29,3.55.87c1.04.58,1.85,1.39,2.42,2.44.58,1.05.87,2.25.87,3.61,0,.53-.03,1-.1,1.43ZM275.17,38.02c-.02-1.07-.4-1.93-1.15-2.58s-1.68-.97-2.78-.97c-1,0-1.86.32-2.58.96s-1.14,1.5-1.28,2.59h7.78Z"/>
    <path class="cls-3" d="M283.97,27.43v18.88h-2.91v-18.88h2.91Z"/>
    <path class="cls-3" d="M287.71,35.46c.59-1.09,1.39-1.93,2.4-2.54,1.01-.6,2.14-.91,3.38-.91.92,0,1.82.2,2.72.6.89.4,1.6.93,2.13,1.59v-6.79h2.93v18.88h-2.93v-2.12c-.48.68-1.14,1.24-1.98,1.68s-1.81.66-2.9.66c-1.22,0-2.34-.31-3.35-.93-1.01-.62-1.81-1.49-2.4-2.6-.59-1.11-.88-2.38-.88-3.79s.29-2.66.88-3.75ZM297.73,36.74c-.4-.71-.92-1.26-1.57-1.63-.65-.37-1.34-.56-2.09-.56s-1.45.18-2.09.55c-.65.37-1.17.9-1.57,1.61-.4.71-.6,1.54-.6,2.51s.2,1.82.6,2.55c.4.73.93,1.29,1.58,1.67s1.35.57,2.08.57,1.45-.19,2.09-.56c.65-.37,1.17-.92,1.57-1.65.4-.72.6-1.57.6-2.54s-.2-1.81-.6-2.53Z"/>
    <path class="cls-3" d="M307.59,45.63c-1.07-.6-1.91-1.45-2.53-2.55-.61-1.1-.92-2.37-.92-3.81s.31-2.7.94-3.8c.63-1.11,1.49-1.96,2.58-2.55,1.09-.6,2.3-.89,3.65-.89s2.56.3,3.65.89c1.09.6,1.95,1.45,2.58,2.55.63,1.11.94,2.37.94,3.8s-.32,2.7-.97,3.8c-.65,1.11-1.53,1.96-2.64,2.56-1.11.6-2.34.91-3.69.91s-2.53-.3-3.6-.91ZM313.29,43.48c.65-.36,1.19-.89,1.59-1.61.41-.71.61-1.58.61-2.6s-.2-1.88-.59-2.59c-.39-.71-.91-1.24-1.56-1.59-.65-.36-1.34-.54-2.09-.54s-1.44.18-2.08.54c-.64.36-1.14.89-1.52,1.59-.37.71-.56,1.57-.56,2.59,0,1.51.39,2.68,1.16,3.51.77.83,1.75,1.24,2.92,1.24.75,0,1.45-.18,2.1-.54Z"/>
  </g>
  <g>
    <path class="cls-1" d="M46.67,56.56h-24.13c-.54,0-.97-.44-.97-.97V17.61c0-.54.44-.97.97-.97h29.87c.54,0,.97.44.97.97v31.01c0,.54-.44.97-.97.97s-.97-.44-.97-.97v-30.04h-27.92v36.03h23.16c.54,0,.97.44.97.97s-.44.97-.97.97Z"/>
    <path class="cls-1" d="M45.19,27.09h-15.43c-.54,0-.97-.44-.97-.97s.44-.97.97-.97h15.43c.54,0,.97.44.97.97s-.44.97-.97.97Z"/>
    <path class="cls-1" d="M45.19,32.43h-15.43c-.54,0-.97-.44-.97-.97s.44-.97.97-.97h15.43c.54,0,.97.44.97.97s-.44.97-.97.97Z"/>
    <path class="cls-1" d="M45.19,37.57h-15.43c-.54,0-.97-.44-.97-.97s.44-.97.97-.97h15.43c.54,0,.97.44.97.97s-.44.97-.97.97Z"/>
    <path class="cls-1" d="M45.19,42.72h-15.43c-.54,0-.97-.44-.97-.97s.44-.97.97-.97h15.43c.54,0,.97.44.97.97s-.44.97-.97.97Z"/>
    <path class="cls-1" d="M46.67,56.56c-.11,0-.22-.02-.33-.06-.39-.14-.65-.51-.65-.92v-6.97c0-.54.44-.97.97-.97h5.74c.38,0,.72.22.88.56.16.34.11.74-.13,1.03l-5.74,6.97c-.19.23-.47.35-.75.35ZM47.65,49.6v3.28l2.7-3.28h-2.7Z"/>
  </g>
</svg>