<?xml version="1.0" encoding="UTF-8"?>
<svg id="Layer_1" data-name="Layer 1" xmlns="http://www.w3.org/2000/svg" viewBox="0 0 75.98 61.81">
  <defs>
    <style>
      .cls-1 {
        fill: #290a93;
      }
    </style>
  </defs>
  <path class="cls-1" d="M67.93,61.81H8.05C3.61,61.81,0,58.2,0,53.76V13.83c0-.97.78-1.75,1.75-1.75h66.18c4.44,0,8.05,3.61,8.05,8.05v33.63c0,4.44-3.61,8.05-8.05,8.05ZM3.51,15.59v38.17c0,2.51,2.04,4.54,4.54,4.54h59.89c2.5,0,4.54-2.04,4.54-4.54V20.13c0-2.51-2.04-4.54-4.54-4.54H3.51Z"/>
  <path class="cls-1" d="M1.75,20.28C.78,20.28,0,19.49,0,18.52v-10.48C0,3.61,3.61,0,8.05,0h12.38c4.44,0,8.05,3.61,8.05,8.05v5.78c0,.97-.78,1.75-1.75,1.75s-1.75-.78-1.75-1.75v-5.78c0-2.51-2.04-4.54-4.54-4.54h-12.38c-2.51,0-4.54,2.04-4.54,4.54v10.48c0,.97-.78,1.75-1.75,1.75Z"/>
</svg>