<?xml version="1.0" encoding="UTF-8"?>
<svg id="Layer_1" data-name="Layer 1" xmlns="http://www.w3.org/2000/svg" viewBox="0 0 107.55 90.05">
  <defs>
    <style>
      .cls-1 {
        fill: #ff4131;
      }
    </style>
  </defs>
  <path class="cls-1" d="M39.19,90.05c-.08,0-.15,0-.23-.01-.8-.07-1.52-.54-1.92-1.23l-9.05-15.77c-9.92.53-17-1.29-21.6-5.56C.76,62.25,0,54.38,0,47.38v-20.43C0,12.09,12.09,0,26.95,0h53.65c14.86,0,26.95,12.09,26.95,26.95v19.04c0,16.62-8.53,26.95-22.25,26.95h-30.38l-13.84,16.23c-.47.56-1.16.87-1.89.87ZM29.38,67.98c.88,0,1.7.47,2.15,1.25l8.06,14.05,12.3-14.43c.47-.55,1.16-.87,1.89-.87h31.53c16.05,0,17.29-16.83,17.29-21.99v-19.04c0-12.13-9.87-21.99-21.99-21.99H26.95C14.82,4.96,4.96,14.82,4.96,26.95v20.43c0,5.93.57,12.53,4.82,16.46,3.77,3.5,10.12,4.85,19.42,4.15.06,0,.12,0,.19,0Z"/>
  <circle class="cls-1" cx="31.7" cy="37.85" r="7.17"/>
  <circle class="cls-1" cx="52.7" cy="37.85" r="7.17"/>
  <circle class="cls-1" cx="73.69" cy="37.85" r="7.17"/>
</svg>