<?xml version="1.0" encoding="UTF-8"?>
<svg id="Layer_1" data-name="Layer 1" xmlns="http://www.w3.org/2000/svg" viewBox="0 0 64.16 64.16">
  <defs>
    <style>
      .cls-1 {
        fill: #290a93;
      }
    </style>
  </defs>
  <path class="cls-1" d="M64.16,32.08c0,1.29-.89,2.34-2.17,2.54-20.3,3.24-24.14,7.07-27.37,27.37-.2,1.28-1.25,2.17-2.54,2.17-1.29,0-2.34-.89-2.54-2.17-3.24-20.3-7.07-24.14-27.37-27.37C.89,34.42,0,33.37,0,32.08c0-1.29.89-2.34,2.17-2.54,20.3-3.24,24.14-7.07,27.37-27.37C29.75.89,30.79,0,32.08,0c1.29,0,2.34.89,2.54,2.17,3.24,20.3,7.07,24.14,27.37,27.37,1.28.2,2.17,1.25,2.17,2.54ZM32.08,57.67c3.24-17.36,8.23-22.34,25.59-25.59-17.36-3.24-22.34-8.23-25.59-25.59-3.24,17.36-8.23,22.34-25.59,25.59,17.36,3.24,22.35,8.23,25.59,25.59ZM31.43,2.68h0s0,0,0,0h0Z"/>
</svg>