<?xml version="1.0" encoding="UTF-8"?>
<svg id="Layer_1" data-name="Layer 1" xmlns="http://www.w3.org/2000/svg" viewBox="0 0 98.32 98.3">
  <defs>
    <style>
      .cls-1 {
        fill: #ff4131;
      }
    </style>
  </defs>
  <path class="cls-1" d="M49.17,98.3c-1.98,0-3.57-1.35-3.9-3.3-4.95-31.13-10.82-37-41.93-41.96-1.95-.32-3.33-1.92-3.33-3.9s1.38-3.58,3.33-3.9c31.12-4.95,36.99-10.83,41.93-41.93.33-1.97,1.92-3.33,3.9-3.33h.02c1.98,0,3.57,1.38,3.87,3.34,4.96,31.09,10.83,36.97,41.93,41.92,1.95.32,3.33,1.92,3.33,3.9s-1.38,3.58-3.33,3.9h0c-31.1,4.95-36.97,10.83-41.93,41.94-.3,1.94-1.91,3.31-3.87,3.31h-.02ZM9.95,49.15c26.61,4.97,34.25,12.6,39.21,39.22,4.96-26.62,12.6-34.26,39.21-39.22-26.61-4.96-34.25-12.6-39.21-39.21-4.96,26.61-12.6,34.24-39.21,39.21ZM94.59,50.6h.06-.06ZM94.2,48.14h0ZM48.15,4.11h0Z"/>
</svg>