<?xml version="1.0" encoding="UTF-8"?>
<svg id="Layer_1" data-name="Layer 1" xmlns="http://www.w3.org/2000/svg" viewBox="0 0 103.5 93.05">
  <defs>
    <style>
      .cls-1 {
        fill: #ff4131;
      }
    </style>
  </defs>
  <path class="cls-1" d="M19.64,91.36L1.2,70.14c-1.78-2.05-1.56-5.16.49-6.94L66.84,6.6c.4-.34.88-.57,1.39-.67L100.03.05c1.04-.19,2.09.19,2.77.98.69.81.89,1.89.53,2.89l-10.77,30.15c-.17.47-.46.9-.84,1.23L26.58,91.85c-2.05,1.78-5.16,1.56-6.94-.49ZM68.94,9.17L3.87,65.71c-.66.58-.73,1.59-.16,2.25l18.43,21.22c.58.66,1.59.73,2.25.16h0s65.07-56.48,65.07-56.48l10.5-29.42-31.03,5.74Z"/>
  <path class="cls-1" d="M93.32,8.92c-2.24-2.58-1.86-5.97-1.86-6.02l3.3.41-1.65-.2,1.65.19c-.08.73-.22,4.38,4.57,5.05l-.46,3.29c-2.71-.38-4.45-1.45-5.55-2.72Z"/>
  <path class="cls-1" d="M67.88,15.9c-.13-.15-.26-.31-.38-.48-2.49-3.39-1.22-7.86-1.16-8.04l3.19.94-1.59-.47,1.6.46s-.86,3.11.66,5.16c1,1.35,2.89,2.06,5.63,2.11l-.06,3.32c-3.55-.07-6.2-1.08-7.87-3.01Z"/>
  <path class="cls-1" d="M75.05,24.11c-.17-.2-.33-.41-.48-.62-2.25-3.31-.71-7.56-.64-7.74l3.11,1.16s-1.01,2.84.29,4.72c.88,1.28,2.73,1.96,5.48,2.01l-.06,3.32c-3.52-.07-6.11-1.03-7.69-2.85Z"/>
  <path class="cls-1" d="M82.51,32.37c-.14-.16-.27-.33-.4-.5-2.43-3.33-1.34-7.58-1.3-7.76l3.21.84s-.72,2.94.78,4.97c1,1.35,2.84,2.11,5.47,2.23l-.16,3.32c-3.4-.17-5.95-1.21-7.6-3.11Z"/>
  <rect class="cls-1" x="8.73" y="40.22" width="75.59" height="3.32" transform="translate(-16.06 40.78) rotate(-40.98)"/>
  <rect class="cls-1" x="16.03" y="48.61" width="75.59" height="3.32" transform="translate(-19.78 47.62) rotate(-40.98)"/>
  <rect class="cls-1" x="20.51" y="54.03" width="3.32" height="33.74" transform="translate(-41.06 31.92) rotate(-40.98)"/>
  <path class="cls-1" d="M75.75,15.59l1.33-.08c.19-.01.34.18.28.36l-.43,1.41-1.58-.58.1-.79"/>
  <path class="cls-1" d="M82.73,23.63l1.33-.08c.19-.01.34.18.28.36l-.43,1.41-1.58-.58.1-.79"/>
</svg>