<?xml version="1.0" encoding="UTF-8"?>
<svg id="Layer_1" data-name="Layer 1" xmlns="http://www.w3.org/2000/svg" viewBox="0 0 49.49 61.52">
  <defs>
    <style>
      .cls-1 {
        fill: #a282ef;
      }
    </style>
  </defs>
  <path class="cls-1" d="M35.29,22.96c.99-7.76-5.57-14.31-13.33-13.33-5.29.67-9.56,4.94-10.23,10.23-.99,7.76,5.57,14.31,13.33,13.33,5.29-.67,9.56-4.94,10.23-10.23ZM25.16,30.97c-6.63,1.1-12.31-4.58-11.21-11.21.66-4.02,3.9-7.26,7.92-7.92,6.63-1.1,12.31,4.58,11.22,11.21-.66,4.02-3.9,7.26-7.92,7.92Z"/>
  <path class="cls-1" d="M49.41,57.47l-9.06-21.95c.49-.22.93-.52,1.25-.97.95-1.3.49-3.08.09-4.65-.25-.99-.54-2.11-.35-2.7.18-.55,1.04-1.26,1.8-1.88,1.28-1.05,2.73-2.24,2.73-3.91s-1.45-2.86-2.73-3.91c-.76-.63-1.62-1.33-1.8-1.88-.19-.6.09-1.72.35-2.7.4-1.57.86-3.35-.09-4.65-.96-1.31-2.8-1.43-4.43-1.53-1.01-.06-2.15-.13-2.65-.49-.48-.35-.9-1.41-1.26-2.34-.6-1.53-1.28-3.26-2.84-3.77-1.5-.49-2.98.44-4.4,1.34-.87.56-1.86,1.18-2.52,1.18s-1.64-.63-2.52-1.18c-1.42-.9-2.89-1.83-4.4-1.34-1.56.51-2.24,2.24-2.84,3.77-.37.93-.78,1.99-1.26,2.34-.5.36-1.64.43-2.65.49-1.63.1-3.47.21-4.43,1.53-.95,1.3-.49,3.08-.09,4.65.25.99.54,2.11.35,2.7-.18.55-1.04,1.26-1.8,1.88-1.28,1.05-2.73,2.24-2.73,3.91s1.45,2.86,2.73,3.91c.76.63,1.62,1.33,1.8,1.88.19.6-.09,1.72-.35,2.7-.4,1.57-.86,3.35.09,4.65.78,1.07,2.16,1.34,3.52,1.46L.08,57.47c-.15.37-.09.8.17,1.11.26.31.67.45,1.06.37l6.93-1.46,3.72,3.71c.21.21.48.32.77.32.09,0,.17-.01.26-.03.37-.09.66-.36.78-.72l5.87-18.3c.04-.11.04-.22.04-.33.45-.24.89-.52,1.33-.8.87-.56,1.86-1.18,2.52-1.18s1.64.63,2.52,1.18c1.28.81,2.6,1.64,3.94,1.44l5.77,17.99c.12.36.41.63.78.72.09.02.17.03.26.03.28,0,.56-.11.77-.32l3.72-3.71,6.92,1.46c.4.08.8-.06,1.06-.37.26-.31.32-.74.17-1.11ZM12.23,58.41l-2.87-2.87c-.26-.26-.63-.37-.99-.29l-5.49,1.16,8.34-20.2c.53.07,1.01.18,1.28.37.48.35.9,1.41,1.26,2.34.6,1.53,1.28,3.26,2.84,3.77.21.07.43.1.64.12l-5.01,15.61ZM27.19,39.5c-1.18-.75-2.4-1.52-3.68-1.52s-2.5.77-3.68,1.52c-.9.57-2.03,1.28-2.56,1.11-.59-.19-1.09-1.47-1.49-2.49-.5-1.27-1.01-2.58-2.01-3.3-1.01-.73-2.42-.82-3.79-.9-1.09-.07-2.45-.15-2.8-.64-.34-.47,0-1.78.26-2.83.34-1.34.7-2.72.31-3.92-.37-1.15-1.45-2.04-2.49-2.89-.91-.74-1.93-1.59-1.93-2.23s1.03-1.49,1.93-2.23c1.04-.85,2.12-1.74,2.49-2.89.39-1.2.03-2.58-.31-3.92-.27-1.05-.6-2.36-.26-2.83.35-.49,1.71-.57,2.8-.64,1.37-.08,2.78-.17,3.79-.9.99-.72,1.51-2.03,2.01-3.3.4-1.03.9-2.3,1.49-2.5.06-.02.12-.03.18-.03.58,0,1.57.63,2.37,1.14,1.18.75,2.4,1.52,3.68,1.52s2.5-.77,3.68-1.52c.9-.57,2.02-1.29,2.56-1.11.59.19,1.09,1.47,1.49,2.5.5,1.27,1.01,2.58,2.01,3.3,1.01.73,2.42.82,3.79.9,1.09.07,2.45.15,2.8.64.35.47,0,1.78-.26,2.83-.34,1.34-.7,2.72-.31,3.92.38,1.15,1.45,2.03,2.49,2.89.91.74,1.93,1.59,1.93,2.23s-1.03,1.49-1.93,2.23c-1.04.85-2.12,1.74-2.49,2.89-.39,1.2-.03,2.58.31,3.92.27,1.05.6,2.36.26,2.83-.35.49-1.71.57-2.8.64-1.37.08-2.78.17-3.79.9-.99.72-1.51,2.03-2.01,3.3-.4,1.03-.9,2.3-1.49,2.49-.54.18-1.66-.54-2.56-1.11ZM41.13,55.25c-.36-.08-.73.03-.99.29l-2.87,2.87-5.38-16.78c.62-.76,1.02-1.78,1.39-2.72.36-.93.78-1.99,1.26-2.34.5-.36,1.64-.43,2.65-.49.34-.02.69-.04,1.04-.08,0,.03,0,.05.02.08l8.39,20.32-5.49-1.16Z"/>
</svg>