<?xml version="1.0" encoding="UTF-8"?>
<svg id="Layer_1" data-name="Layer 1" xmlns="http://www.w3.org/2000/svg" viewBox="0 0 68.76 79.35">
  <defs>
    <style>
      .cls-1 {
        fill: #290a93;
      }
    </style>
  </defs>
  <path class="cls-1" d="M34.26,34.97c-1.62-1.88-2.03-4.67-.79-7.02l5.63-10.66c.78-1.48,2.09-2.56,3.69-3.06,1.6-.49,3.29-.33,4.77.45,1.49.78,2.57,2.09,3.06,3.69.49,1.6.33,3.29-.45,4.77l-5.63,10.66c-.78,1.48-2.09,2.56-3.69,3.06-1.6.49-3.29.33-4.77-.45-.02,0-.04-.02-.05-.03h0c-.69-.37-1.28-.85-1.77-1.42ZM37.92,32.95l-.91,1.74.92-1.73c1.14.6,2.56.17,3.16-.98l5.63-10.66c.29-.55.35-1.19.17-1.78-.18-.6-.59-1.09-1.14-1.38-.56-.3-1.19-.36-1.79-.17-.6.18-1.09.59-1.38,1.14l-5.63,10.66c-.6,1.14-.16,2.56.98,3.16Z"/>
  <path class="cls-1" d="M8.42,30.2c-.51-.59-.63-1.46-.25-2.19.51-.96,1.69-1.32,2.65-.82l44.92,23.74c.96.5,1.32,1.69.82,2.65-.51.96-1.69,1.32-2.65.82L8.99,30.65c-.22-.12-.41-.27-.57-.45Z"/>
  <path class="cls-1" d="M6.9,69.47C-.51,60.86-2.33,48.24,3.29,37.6L15.16,15.15C22.49,1.28,39.73-4.04,53.59,3.29c6.72,3.55,11.65,9.5,13.89,16.76,2.24,7.26,1.52,14.96-2.03,21.67l-11.87,22.46c-3.55,6.72-9.5,11.65-16.76,13.89-7.26,2.24-14.96,1.52-21.67-2.03-3.23-1.71-6-3.95-8.25-6.57ZM58.9,12.44c-1.98-2.3-4.38-4.22-7.14-5.68-11.95-6.32-26.82-1.73-33.14,10.22l-11.87,22.46c-6.32,11.95-1.73,26.82,10.22,33.14,11.95,6.32,26.82,1.73,33.14-10.22l11.87-22.46c3.06-5.79,3.68-12.43,1.75-18.69-1.01-3.28-2.66-6.25-4.83-8.77Z"/>
  <path class="cls-1" d="M8.42,30.2c-.51-.59-.63-1.46-.25-2.19.51-.96,1.69-1.32,2.65-.82l44.92,23.74c.96.5,1.32,1.69.82,2.65-.51.96-1.69,1.32-2.65.82L8.99,30.65c-.22-.12-.41-.27-.57-.45Z"/>
  <path class="cls-1" d="M32.52,41.63c-.51-.59-.63-1.46-.25-2.19l3.36-6.36c.51-.96,1.69-1.32,2.65-.82.96.5,1.32,1.69.82,2.65l-3.36,6.36c-.51.96-1.69,1.32-2.65.82-.22-.12-.41-.27-.57-.45Z"/>
  <path class="cls-1" d="M45.17,17.69c-.51-.59-.63-1.46-.25-2.2l6.03-11.39c.51-.96,1.69-1.32,2.65-.82.96.51,1.32,1.69.82,2.65l-6.03,11.39c-.51.96-1.69,1.32-2.65.82-.22-.12-.41-.27-.57-.45Z"/>
</svg>