<?xml version="1.0" encoding="UTF-8"?>
<svg id="Layer_1" data-name="Layer 1" xmlns="http://www.w3.org/2000/svg" viewBox="0 0 96.43 96.43">
  <defs>
    <style>
      .cls-1 {
        fill: #a780f5;
      }
    </style>
  </defs>
  <path class="cls-1" d="M82.33,14.11c18.81,18.81,18.81,49.41,0,68.22-18.81,18.81-49.41,18.81-68.22,0-18.81-18.81-18.81-49.41,0-68.22,18.81-18.81,49.41-18.81,68.22,0ZM17.58,78.85c16.89,16.89,44.38,16.89,61.27,0,16.89-16.89,16.89-44.38,0-61.27-16.89-16.89-44.38-16.89-61.27,0C.69,34.47.69,61.96,17.58,78.85Z"/>
  <rect class="cls-1" x="44.72" y="26.6" width="6.99" height="45.54" rx="3.5" ry="3.5"/>
  <rect class="cls-1" x="44.72" y="26.6" width="6.99" height="45.54" rx="3.5" ry="3.5" transform="translate(97.59 1.16) rotate(90)"/>
</svg>