<?xml version="1.0" encoding="UTF-8"?>
<svg id="Layer_1" data-name="Layer 1" xmlns="http://www.w3.org/2000/svg" viewBox="0 0 75.42 73.92">
  <defs>
    <style>
      .cls-1 {
        fill: #290a93;
      }
    </style>
  </defs>
  <path class="cls-1" d="M38.46,73.92h-1.5C16.58,73.92,0,57.34,0,36.96c0-3.11.39-6.2,1.15-9.18.23-.91,1.16-1.46,2.07-1.23.91.23,1.46,1.16,1.23,2.07-.69,2.71-1.04,5.51-1.04,8.34,0,18.51,15.06,33.56,33.56,33.56h1.5c18.51,0,33.56-15.06,33.56-33.56,0-18.51-15.06-33.56-33.56-33.56h-1.5c-2.83,0-5.63.35-8.34,1.05-.91.23-1.83-.32-2.07-1.22-.23-.91.32-1.83,1.22-2.07C30.76.39,33.85,0,36.96,0h1.5c20.38,0,36.96,16.58,36.96,36.96,0,20.38-16.58,36.96-36.96,36.96Z"/>
  <path class="cls-1" d="M54.92,42.26h-18.66c-.94,0-1.7-.76-1.7-1.7v-21.82c0-.94.76-1.7,1.7-1.7s1.7.76,1.7,1.7v20.12s16.97,0,16.97,0c.94,0,1.7.76,1.7,1.7s-.76,1.7-1.7,1.7Z"/>
  <path class="cls-1" d="M4.45,24.7c-.26,0-.53-.06-.77-.19-.83-.43-1.16-1.45-.74-2.29l1.83-3.57c.43-.83,1.45-1.17,2.29-.74.83.43,1.16,1.45.74,2.29l-1.83,3.57c-.3.59-.9.92-1.51.92Z"/>
  <path class="cls-1" d="M9.95,16.45c-.39,0-.78-.13-1.1-.4-.72-.61-.8-1.68-.2-2.39l2.6-3.06c.61-.71,1.68-.8,2.39-.2.72.61.8,1.68.2,2.39l-2.6,3.06c-.34.4-.81.6-1.3.6Z"/>
  <path class="cls-1" d="M17.99,9.03c-.57,0-1.12-.29-1.45-.8-.49-.8-.25-1.84.55-2.34l3.41-2.11c.8-.49,1.84-.25,2.34.55.49.8.25,1.84-.55,2.34l-3.41,2.11c-.28.17-.59.25-.89.25Z"/>
</svg>