<?xml version="1.0" encoding="UTF-8"?>
<svg id="Layer_1" data-name="Layer 1" xmlns="http://www.w3.org/2000/svg" viewBox="0 0 97.36 96.3">
  <defs>
    <style>
      .cls-1 {
        fill: #ff4131;
      }
    </style>
  </defs>
  <path class="cls-1" d="M48.15,96.3C21.6,96.3,0,74.7,0,48.15S21.6,0,48.15,0c18.05,0,34.44,9.96,42.76,25.99.63,1.21.16,2.71-1.06,3.34-1.22.63-2.71.16-3.34-1.06-7.47-14.38-22.17-23.32-38.36-23.32C24.33,4.96,4.96,24.33,4.96,48.15s19.38,43.19,43.19,43.19,43.19-19.38,43.19-43.19c0-1.37,1.11-2.48,2.48-2.48s2.48,1.11,2.48,2.48c0,26.55-21.6,48.15-48.15,48.15Z"/>
  <path class="cls-1" d="M91.82,33.56c-.07,0-.13,0-.2,0l-27.98-2.25c-1.36-.11-2.38-1.31-2.27-2.67.11-1.37,1.31-2.39,2.67-2.27l25.59,2.06,2.79-24.03c.16-1.36,1.39-2.34,2.75-2.18,1.36.16,2.33,1.39,2.18,2.75l-3.06,26.41c-.15,1.26-1.21,2.19-2.46,2.19Z"/>
</svg>