<?xml version="1.0" encoding="UTF-8"?>
<svg id="Layer_1" data-name="Layer 1" xmlns="http://www.w3.org/2000/svg" viewBox="0 0 59.12 70.04">
  <defs>
    <style>
      .cls-1 {
        fill: #290a93;
      }
    </style>
  </defs>
  <path class="cls-1" d="M45.39,70.03c-.7-.03-1.33-.46-1.59-1.13l-12.15-30.86-30.02-2.54c-.78-.07-1.42-.63-1.59-1.39-.17-.76.18-1.55.85-1.93L56.45.24c.6-.35,1.35-.31,1.92.09.57.4.85,1.09.73,1.77l-11.88,66.47c-.14.79-.79,1.38-1.58,1.46-.08,0-.17.01-.25,0ZM7.62,32.43l25.44,2.15c.68.06,1.26.49,1.51,1.12l10.24,26.02L54.91,5.24,7.62,32.43Z"/>
</svg>