<?xml version="1.0" encoding="UTF-8"?>
<svg id="Layer_1" data-name="Layer 1" xmlns="http://www.w3.org/2000/svg" viewBox="0 0 56.6 82.04">
  <defs>
    <style>
      .cls-1 {
        fill: #290a93;
      }
    </style>
  </defs>
  <path class="cls-1" d="M8.83,82.04c-.71,0-1.43-.27-2.02-.79-1.21-1.08-1.74-3.23-.53-4.96l16.03-22.92H3.24c-1.22,0-2.32-.73-2.87-1.91-.63-1.36-.44-2.95.49-4.06L39.52,1.16c1.02-1.22,2.65-1.51,3.95-.7,1.51.93,2.09,2.93,1.35,4.66l-12.93,29.91,21.56.63c1.32.04,2.43.89,2.91,2.22.53,1.48.14,3.13-.97,4.11L10.87,81.25c-.6.53-1.32.8-2.04.8ZM4.08,49.53h19.03c1.18,0,2.22.66,2.8,1.77.66,1.26.56,2.82-.24,3.96l-14.25,20.37,41.02-36.16-21.36-.63c-1.04-.03-1.97-.58-2.56-1.51-.67-1.05-.77-2.43-.27-3.59l11.75-27.18L4.08,49.53ZM53.34,39.5h.01s-.01,0-.01,0ZM41.31,3.55h0Z"/>
</svg>