<?xml version="1.0" encoding="UTF-8"?>
<svg id="Layer_1" data-name="Layer 1" xmlns="http://www.w3.org/2000/svg" viewBox="0 0 33 33.04">
  <defs>
    <style>
      .cls-1 {
        fill: #fff;
      }
    </style>
  </defs>
  <path class="cls-1" d="M21.41.07c2.86.08,5.95.28,8.24,2.22s3.16,4.73,3.29,7.77c.17,4.2-.14,8.51,0,12.72-.05,5.7-3.13,9.54-8.92,10.05-3.97.35-8.67.19-12.68.06-2.99-.1-5.48-.16-7.92-2.12C.53,28.45.22,25.46.1,22c-.13-3.59-.13-7.26,0-10.85.11-3.13.29-5.89,2.6-8.26C5.1.44,8.31.16,11.56.07S18.22-.02,21.41.07ZM10.71,3.11c-5.37.21-7.44,2.01-7.65,7.46-.16,4.01-.14,8.27.07,12.27.25,4.86,2.06,6.8,6.99,7.1,3.66.23,7.78.12,11.46,0,2.6-.09,5.02,0,6.86-2.15,1.61-1.86,1.47-4.19,1.54-6.49.11-3.58.21-7.47,0-11.05-.31-5.41-2.57-6.99-7.82-7.17-3.66-.13-7.79-.12-11.45.02Z"/>
  <path class="cls-1" d="M24.98,16.51c0,4.66-3.79,8.45-8.47,8.45s-8.47-3.78-8.47-8.45,3.79-8.45,8.47-8.45,8.47,3.78,8.47,8.45ZM22.01,16.51c0-3.03-2.46-5.48-5.49-5.48s-5.49,2.45-5.49,5.48,2.46,5.48,5.49,5.48,5.49-2.45,5.49-5.48Z"/>
  <ellipse class="cls-1" cx="25.32" cy="7.73" rx="1.98" ry="1.97"/>
</svg>