<?xml version="1.0" encoding="utf-8"?>
<!-- Generator: Adobe Illustrator 29.7.1, SVG Export Plug-In . SVG Version: 9.03 Build 0)  -->
<svg version="1.1" baseProfile="tiny" id="Layer_1" xmlns="http://www.w3.org/2000/svg" xmlns:xlink="http://www.w3.org/1999/xlink"
	 x="0px" y="0px" viewBox="0 0 582.2 582.6" overflow="visible" xml:space="preserve">
<path fill="#4BC3FE" d="M582.2,307.8c-0.2,36.1-0.6,76.3-4,112.2c-9.9,104.9-68.3,155.4-172.2,160.1c-73.5,3.3-156,3.3-229.5,0
	C82.9,575.9,19,529.1,6.3,433c-9-67.5-6.3-151-4-219.4S5.5,85.1,61.7,40.5s92.4-37,141.7-38.9c55.4-2.1,119.3-2.1,174.7,0
	c69.5,2.5,139.2,13.6,177.2,78.3c28.6,48.8,26.6,136.9,26.9,193S582.2,296.2,582.2,307.8z M496.9,477c22.3-28,20.6-64.1,22.3-97.9
	c3.5-69.6,4.6-144.2-1.9-213.4s-30-89.6-93.4-98.2c-78.4-1.1-158.1-5.2-236.6-2.1c-68,2.7-113.5,19.4-122.2,93.3
	c-7,59.2-4.6,129.4-3,189.5c1.9,69.7-5,142,79.6,159.9c22.2,4.7,42.4,3.6,64.7,4.2c56.4,1.5,113.2,1.5,169.6,0
	C417,511.2,468.7,512.6,496.9,477z"/>
<path fill="#4BC3FE" d="M433.4,297.2c0,79-64.1,143-143.1,143s-143.1-64-143.1-143s64.1-143,143.1-143S433.4,218.2,433.4,297.2z
	 M372.6,297.2c0-45.5-36.9-82.3-82.4-82.3s-82.4,36.9-82.4,82.3s36.9,82.3,82.4,82.3S372.6,342.6,372.6,297.2z"/>
<ellipse fill="#4BC3FE" cx="444.2" cy="154.9" rx="33.3" ry="33.3"/>
</svg>
