<?xml version="1.0" encoding="UTF-8"?>
<svg id="Layer_1" xmlns="http://www.w3.org/2000/svg" version="1.1" viewBox="0 0 582.2 582.6">
  <!-- Generator: Adobe Illustrator 29.6.1, SVG Export Plug-In . SVG Version: 2.1.1 Build 9)  -->
  <defs>
    <style>
      .st0 {
        fill: #fff;
      }
    </style>
  </defs>
  <path class="st0" d="M582.2,307.8c-.2,36.1-.6,76.3-4,112.2-9.9,104.9-68.3,155.4-172.2,160.1-73.5,3.3-156,3.3-229.5,0-93.6-4.2-157.5-51-170.2-147.1C-2.7,365.5,0,282,2.3,213.6S5.5,85.1,61.7,40.5,154.1,3.5,203.4,1.6c55.4-2.1,119.3-2.1,174.7,0,69.5,2.5,139.2,13.6,177.2,78.3,28.6,48.8,26.6,136.9,26.9,193s0,23.3,0,34.9ZM496.9,477c22.3-28,20.6-64.1,22.3-97.9,3.5-69.6,4.6-144.2-1.9-213.4s-30-89.6-93.4-98.2c-78.4-1.1-158.1-5.2-236.6-2.1-68,2.7-113.5,19.4-122.2,93.3-7,59.2-4.6,129.4-3,189.5,1.9,69.7-5,142,79.6,159.9,22.2,4.7,42.4,3.6,64.7,4.2,56.4,1.5,113.2,1.5,169.6,0,41-1.1,92.7.3,120.9-35.3Z"/>
  <path class="st0" d="M433.4,297.2c0,79-64.1,143-143.1,143s-143.1-64-143.1-143,64.1-143,143.1-143,143.1,64,143.1,143ZM372.6,297.2c0-45.5-36.9-82.3-82.4-82.3s-82.4,36.9-82.4,82.3,36.9,82.3,82.4,82.3,82.4-36.9,82.4-82.3Z"/>
  <ellipse class="st0" cx="444.2" cy="154.9" rx="33.3" ry="33.3"/>
</svg>