<?xml version="1.0" encoding="UTF-8"?>
<svg id="Layer_1" data-name="Layer 1" xmlns="http://www.w3.org/2000/svg" viewBox="0 0 156.38 161.49">
  <defs>
    <style>
      .cls-1 {
        fill: #a780f5;
      }
    </style>
  </defs>
  <path class="cls-1" d="M97.58,134.81c0-17.29,13.74-31.3,30.69-31.3,2.18,0,4.31.24,6.36.68,5.11-9.83,8.01-21.01,8.01-32.86C142.64,31.93,110.71,0,71.32,0S0,31.93,0,71.32s31.93,71.32,71.32,71.32c9.32,0,18.23-1.79,26.39-5.04-.08-.92-.13-1.85-.13-2.79ZM71.32,102.51c-17.23,0-31.19-13.96-31.19-31.19s13.96-31.19,31.19-31.19,31.19,13.97,31.19,31.19-13.97,31.19-31.19,31.19Z"/>
  <ellipse class="cls-1" cx="133.01" cy="137.66" rx="23.37" ry="23.83"/>
</svg>