<?xml version="1.0" encoding="utf-8"?>
<!-- Generator: Adobe Illustrator 30.0.0, SVG Export Plug-In . SVG Version: 9.03 Build 0)  -->
<svg version="1.1" baseProfile="tiny" id="Layer_1" xmlns="http://www.w3.org/2000/svg" xmlns:xlink="http://www.w3.org/1999/xlink"
	 x="0px" y="0px" viewBox="0 0 1333.1 416.6" overflow="visible" xml:space="preserve">
<g>
	<path fill="#04102D" d="M232.8,173.3V11.5h100.6v25.3h-71.8v42.6h69.8v25h-69.8v69L232.8,173.3L232.8,173.3z"/>
	<path fill="#04102D" d="M370.6,11.4c9.5,0,16.6,7.3,16.6,16.4s-7.1,16.4-16.6,16.4s-16.6-7.1-16.6-16.4S361.3,11.4,370.6,11.4z
		 M356.6,173.3V62.8h27.9v110.6H356.6z"/>
	<path fill="#04102D" d="M443.9,173.3H416V62.8h27v18.8c5.1-12.9,19.5-21.5,36.8-21.5c26.6,0,41.4,19.5,41.4,47v66.2h-27.9v-61.6
		c0-15.7-7.1-27.2-23.7-27.2c-15.3,0-25.7,11.1-25.7,27L443.9,173.3L443.9,173.3z"/>
	<path fill="#04102D" d="M578.6,173.3h-27.9V62.8h27v18.8c5.1-12.9,19.5-21.5,36.8-21.5c26.6,0,41.4,19.5,41.4,47v66.2H628v-61.6
		c0-15.7-7.1-27.2-23.7-27.2c-15.3,0-25.7,11.1-25.7,27L578.6,173.3L578.6,173.3z"/>
	<path fill="#04102D" d="M706,127.5c1.8,16.6,12.4,27.9,32.1,27.9c13.5,0,23.9-6,29.2-14.4h25.9c-7.5,19.7-28.8,35-55.2,35
		c-37.7,0-59.6-25-59.6-58.1s24.2-57.8,58.3-57.8s58,24.1,58,58.3v9.1H706L706,127.5z M705.8,109.1h62.5c-1.8-17.1-13.1-29-31-29
		S708,91.1,705.8,109.1L705.8,109.1z"/>
	<path fill="#04102D" d="M905.8,82.3V62.8h27.5v109c0,28.6-25.9,50.3-60.3,50.3c-28.6,0-51-12.6-59.4-37.9h27.7
		c5.3,10.6,15.7,16.4,31.5,16.4c19,0,32.6-10.4,32.6-28.8v-21.5c-6.4,11.1-20.6,20.4-38.8,20.4c-32.8,0-54.7-24.6-54.7-55.2
		s21.9-55.4,54.7-55.4C885.7,60.1,900.5,69.9,905.8,82.3L905.8,82.3z M905.4,115.5c0-19.5-15.1-32.3-33.5-32.3
		c-19.7,0-32.3,13.7-32.3,32.4s12.6,32.1,32.3,32.1C890.3,147.6,905.4,134.8,905.4,115.5L905.4,115.5z"/>
	<path fill="#04102D" d="M1080,62.8v110.6h-26.8v-19c-6.4,11.3-21.1,21.7-40.3,21.7c-32.8,0-55.8-26.1-55.8-57.8s23-58.1,55.8-58.1
		c19.3,0,34.3,10,39.9,21.7V62.8L1080,62.8L1080,62.8z M1018.2,152.9c18.4,0,33.9-13.5,33.9-34.8s-15.5-35-33.9-35
		c-19.9,0-33.2,15.7-33.2,35S998.2,152.9,1018.2,152.9z"/>
	<path fill="#04102D" d="M1138.5,173.3h-27.9V62.8h27v18.8c5.1-12.9,19.5-21.5,36.8-21.5c26.6,0,41.4,19.5,41.4,47v66.2h-27.9v-61.6
		c0-15.7-7.1-27.2-23.7-27.2c-15.3,0-25.7,11.1-25.7,27L1138.5,173.3L1138.5,173.3z"/>
	<path fill="#04102D" d="M1261.2,140.3c1.6,10.2,8.2,16.2,20.4,16.2c10.6,0,18.2-5.3,18.2-14.2c0-7.1-3.8-10.9-12-13.1l-16.4-4.4
		c-19.1-4.9-29.7-14.2-29.7-31.9c0-20.2,17.3-32.8,39.2-32.8c23.7,0,37,13.7,39.2,33h-23.7c-0.4-6.9-5.1-13.5-14.8-13.5
		c-8.6,0-14.4,4.6-14.4,12c0,6.9,4,9.5,12,11.7l19.7,5.5c17.7,4.9,26.4,15.1,26.4,31c0,21.9-20.8,36.1-43.4,36.1
		s-41.4-10.6-44.3-35.7L1261.2,140.3L1261.2,140.3z"/>
</g>
<g>
	<path fill="#A282EF" d="M316.8,212c49.4,0,82.4,35.7,82.4,80.7c0,25.9-10.9,48.8-29.7,63.4l20.4,27.7h-31l-11.5-15.5
		c-7.8,3.1-19.5,5.1-30.6,5.1c-49.2,0-82.4-35.5-82.4-80.7S267.6,212,316.8,212L316.8,212z M340.1,315.5l13.7,18.8
		c10.6-10.4,16.6-25.5,16.6-41.7c0-29.9-20-55.9-53.6-55.9s-53.6,25.9-53.6,55.9s20.2,55.9,53.6,55.9c5.3,0,10.2-0.7,14.9-1.8
		l-22.8-31.2L340.1,315.5L340.1,315.5z"/>
	<path fill="#A282EF" d="M499.6,259.6h27.9v110.6h-26.8v-18.6c-5.5,12.6-19.3,21.3-36.6,21.3c-26.6,0-41-19.5-41-46.8v-66.5h27.9v62
		c0,16,6.2,27.3,23.3,27.3c16,0,25.3-11.1,25.3-27L499.6,259.6L499.6,259.6z"/>
	<path fill="#A282EF" d="M573,208.2c9.5,0,16.6,7.3,16.6,16.4S582.5,241,573,241s-16.6-7.1-16.6-16.4S563.7,208.2,573,208.2z
		 M559,370.2V259.6h27.9v110.6H559z"/>
	<path fill="#A282EF" d="M646.3,416.6h-27.9V259.6h26.8v19.1c6.4-11.3,21-21.7,40.3-21.7c32.8,0,55.8,26.1,55.8,58.1
		s-23,57.8-55.8,57.8c-19.3,0-33.7-9.8-39.2-21.7L646.3,416.6L646.3,416.6z M680,280c-18.2,0-33.7,13.7-33.7,35s15.5,34.8,33.7,34.8
		c20,0,33.5-15.5,33.5-34.8S700,280,680,280z"/>
	<path fill="#A282EF" d="M793,416.6h-27.9V259.6h26.8v19.1c6.4-11.3,21-21.7,40.3-21.7c32.8,0,55.8,26.1,55.8,58.1
		s-23,57.8-55.8,57.8c-19.3,0-33.7-9.8-39.2-21.7L793,416.6L793,416.6z M826.7,280c-18.2,0-33.7,13.7-33.7,35s15.5,34.8,33.7,34.8
		c20,0,33.5-15.5,33.5-34.8S846.7,280,826.7,280z"/>
	<path fill="#A282EF" d="M905,315.1c0-30.1,22.6-58.1,60.7-58.1s60.7,27.9,60.7,58.1s-22.6,57.8-60.7,57.8S905,345,905,315.1z
		 M932.2,315.1c0,18,12,34.6,33.5,34.6s33.5-16.6,33.5-34.6s-12-34.8-33.5-34.8S932.2,297.1,932.2,315.1L932.2,315.1z"/>
	<path fill="#A282EF" d="M1066.1,337.2c1.6,10.2,8.2,16.2,20.4,16.2c10.6,0,18.2-5.3,18.2-14.2c0-7.1-3.8-10.9-12-13.1l-16.4-4.4
		c-19.1-4.9-29.7-14.2-29.7-31.9c0-20.2,17.3-32.8,39.2-32.8c23.7,0,37,13.7,39.2,33h-23.7c-0.4-6.9-5.1-13.5-14.8-13.5
		c-8.6,0-14.4,4.6-14.4,12c0,6.9,4,9.5,12,11.8l19.7,5.5c17.7,4.9,26.4,15.1,26.4,31c0,21.9-20.8,36.1-43.4,36.1
		s-41.4-10.6-44.3-35.7L1066.1,337.2L1066.1,337.2z"/>
</g>
<g>
	<path fill="#A282EF" d="M112.1,154.9c0-19.9,15.8-36,35.3-36c2.5,0,4.9,0.3,7.3,0.8c5.9-11.3,9.2-24.1,9.2-37.8
		c0-45.3-36.7-82-82-82S0,36.7,0,82s36.7,82,82,82c10.7,0,20.9-2.1,30.3-5.8C112.2,157.1,112.1,156,112.1,154.9L112.1,154.9z
		 M82,117.8c-19.8,0-35.9-16.1-35.9-35.9S62.2,46.1,82,46.1s35.9,16,35.9,35.8S101.8,117.8,82,117.8z"/>
	<ellipse fill="#A282EF" cx="152.9" cy="158.2" rx="26.9" ry="27.4"/>
</g>
</svg>
