<?xml version="1.0" encoding="UTF-8"?>
<svg id="Layer_1" xmlns="http://www.w3.org/2000/svg" version="1.1" viewBox="0 0 2548.5 557.4">
  <!-- Generator: Adobe Illustrator 29.6.1, SVG Export Plug-In . SVG Version: 2.1.1 Build 9)  -->
  <defs>
    <style>
      .st0 {
        fill: #23087a;
      }

      .st1 {
        fill: #fff;
      }
    </style>
  </defs>
  <g>
    <path class="st1" d="M411.4,355.5v-153.1h95.1v23.9h-67.9v40.3h66v23.7h-66v65.2h-27.2Z"/>
    <path class="st1" d="M541.7,202.3c9,0,15.7,6.9,15.7,15.5s-6.7,15.5-15.7,15.5-15.7-6.7-15.7-15.5,6.9-15.5,15.7-15.5ZM528.5,355.5v-104.6h26.4v104.6h-26.4Z"/>
    <path class="st1" d="M611.1,355.5h-26.4v-104.6h25.6v17.8c4.8-12.2,18.4-20.3,34.8-20.3,25.1,0,39.2,18.4,39.2,44.4v62.7h-26.4v-58.3c0-14.9-6.7-25.8-22.4-25.8s-24.3,10.5-24.3,25.6v58.5Z"/>
    <path class="st1" d="M738.5,355.5h-26.4v-104.6h25.6v17.8c4.8-12.2,18.4-20.3,34.8-20.3,25.1,0,39.2,18.4,39.2,44.4v62.7h-26.4v-58.3c0-14.9-6.7-25.8-22.4-25.8s-24.3,10.5-24.3,25.6v58.5Z"/>
    <path class="st1" d="M859,312.2c1.7,15.7,11.7,26.4,30.4,26.4s22.6-5.7,27.7-13.6h24.5c-7.1,18.7-27.2,33.1-52.2,33.1-35.6,0-56.4-23.7-56.4-54.9s22.8-54.7,55.1-54.7,54.9,22.8,54.9,55.1v8.6h-84ZM858.8,294.8h59.1c-1.7-16.1-12.4-27.5-29.3-27.5s-27.7,10.5-29.8,27.5Z"/>
    <path class="st1" d="M1048,269.4v-18.4h26v103.1c0,27-24.5,47.6-57,47.6s-48.2-11.9-56.2-35.8h26.2c5,10.1,14.9,15.5,29.8,15.5s30.8-9.9,30.8-27.2v-20.3c-6.1,10.5-19.5,19.3-36.7,19.3-31,0-51.8-23.3-51.8-52.2s20.7-52.4,51.8-52.4,32.1,9.2,37.1,21ZM1047.6,300.8c0-18.4-14.3-30.6-31.6-30.6s-30.6,13-30.6,30.6,11.9,30.4,30.6,30.4,31.6-12.2,31.6-30.4Z"/>
    <path class="st1" d="M1212.8,251v104.6h-25.4v-18c-6.1,10.7-19.9,20.5-38.1,20.5-31,0-52.8-24.7-52.8-54.7s21.8-54.9,52.8-54.9,32.5,9.4,37.7,20.5v-18h25.8ZM1154.3,336.3c17.4,0,32.1-12.8,32.1-32.9s-14.7-33.1-32.1-33.1-31.4,14.9-31.4,33.1,12.6,32.9,31.4,32.9Z"/>
    <path class="st1" d="M1268.1,355.5h-26.4v-104.6h25.6v17.8c4.8-12.2,18.4-20.3,34.8-20.3,25.1,0,39.2,18.4,39.2,44.4v62.7h-26.4v-58.3c0-14.9-6.7-25.8-22.4-25.8s-24.3,10.5-24.3,25.6v58.5Z"/>
    <path class="st1" d="M1384.2,324.3c1.5,9.6,7.8,15.3,19.3,15.3s17.2-5,17.2-13.4-3.6-10.3-11.3-12.4l-15.5-4.2c-18-4.6-28.1-13.4-28.1-30.2s16.3-31,37.1-31,35,13,37.1,31.2h-22.4c-.4-6.5-4.8-12.8-14-12.8s-13.6,4.4-13.6,11.3,3.8,9,11.3,11.1l18.7,5.2c16.8,4.6,24.9,14.3,24.9,29.3s-19.7,34.2-41.1,34.2-39.2-10.1-41.9-33.7h22.4Z"/>
  </g>
  <g>
    <path class="st0" d="M1557.6,202.4c46.7,0,78,33.8,78,76.3s-10.3,46.1-28.1,60l19.3,26.2h-29.3l-10.9-14.7c-7.3,2.9-18.4,4.8-28.9,4.8-46.5,0-78-33.5-78-76.3s31.4-76.3,78-76.3ZM1579.6,300.3l13,17.8c10.1-9.9,15.7-24.1,15.7-39.4,0-28.3-18.9-52.8-50.7-52.8s-50.7,24.5-50.7,52.8,19.1,52.8,50.7,52.8,9.6-.6,14-1.7l-21.6-29.6h29.6Z"/>
    <path class="st0" d="M1730.5,247.5h26.4v104.6h-25.4v-17.6c-5.2,11.9-18.2,20.1-34.6,20.1-25.2,0-38.8-18.4-38.8-44.2v-62.9h26.4v58.7c0,15.1,5.9,25.8,22,25.8s23.9-10.5,23.9-25.6v-58.9Z"/>
    <path class="st0" d="M1799.9,198.8c9,0,15.7,6.9,15.7,15.5s-6.7,15.5-15.7,15.5-15.7-6.7-15.7-15.5,6.9-15.5,15.7-15.5ZM1786.7,352.1v-104.6h26.4v104.6h-26.4Z"/>
    <path class="st0" d="M1869.3,395.9h-26.4v-148.4h25.4v18c6.1-10.7,19.9-20.5,38.2-20.5,31,0,52.8,24.7,52.8,54.9s-21.8,54.7-52.8,54.7-31.9-9.2-37.1-20.5v61.8ZM1901.2,266.7c-17.2,0-31.9,13-31.9,33.1s14.7,32.9,31.9,32.9,31.7-14.7,31.7-32.9-12.8-33.1-31.7-33.1Z"/>
    <path class="st0" d="M2008.1,395.9h-26.4v-148.4h25.4v18c6.1-10.7,19.9-20.5,38.2-20.5,31,0,52.8,24.7,52.8,54.9s-21.8,54.7-52.8,54.7-31.9-9.2-37.1-20.5v61.8ZM2039.9,266.7c-17.2,0-31.9,13-31.9,33.1s14.7,32.9,31.9,32.9,31.7-14.7,31.7-32.9-12.8-33.1-31.7-33.1Z"/>
    <path class="st0" d="M2113.9,299.9c0-28.5,21.4-54.9,57.4-54.9s57.4,26.4,57.4,54.9-21.4,54.7-57.4,54.7-57.4-26.4-57.4-54.7ZM2139.7,299.9c0,17,11.3,32.7,31.7,32.7s31.7-15.7,31.7-32.7-11.3-32.9-31.7-32.9-31.7,15.9-31.7,32.9Z"/>
    <path class="st0" d="M2266.3,320.8c1.5,9.6,7.8,15.3,19.3,15.3s17.2-5,17.2-13.4-3.6-10.3-11.3-12.4l-15.5-4.2c-18-4.6-28.1-13.4-28.1-30.2s16.4-31,37.1-31,35,13,37.1,31.2h-22.4c-.4-6.5-4.8-12.8-14-12.8s-13.6,4.4-13.6,11.3,3.8,9,11.3,11.1l18.7,5.2c16.8,4.6,24.9,14.3,24.9,29.3s-19.7,34.2-41.1,34.2-39.2-10.1-41.9-33.8h22.4Z"/>
  </g>
  <g>
    <path class="st0" d="M297.3,338.1c0-18.8,14.9-34,33.4-34s4.7.3,6.9.7c5.6-10.7,8.7-22.8,8.7-35.7,0-42.8-34.7-77.5-77.5-77.5s-77.5,34.7-77.5,77.5,34.7,77.5,77.5,77.5,19.8-1.9,28.7-5.5c0-1-.1-2-.1-3ZM268.7,303c-18.7,0-33.9-15.2-33.9-33.9s15.2-33.9,33.9-33.9,33.9,15.2,33.9,33.9-15.2,33.9-33.9,33.9Z"/>
    <ellipse class="st0" cx="335.8" cy="341.2" rx="25.4" ry="25.9"/>
  </g>
</svg>