<?xml version="1.0" encoding="utf-8"?>
<!-- Generator: Adobe Illustrator 30.0.0, SVG Export Plug-In . SVG Version: 9.03 Build 0)  -->
<svg version="1.1" baseProfile="tiny" id="Layer_1" xmlns="http://www.w3.org/2000/svg" xmlns:xlink="http://www.w3.org/1999/xlink"
	 x="0px" y="0px" viewBox="0 0 458 127.1" overflow="visible" xml:space="preserve">
<g>
	<g>
		<g>
			<path fill="#FFFFFF" d="M190.4,108.7V23H246v14h-39.7v22.8h38.6v13.8h-38.6v35.1H190.4z"/>
		</g>
		<g>
			<path fill="#FFFFFF" d="M266.6,19.2c5.3,0,9.2,4,9.2,9.1c0,5.1-3.9,9.1-9.2,9.1c-5.1,0-9.2-3.9-9.2-9.1
				C257.4,23.2,261.4,19.2,266.6,19.2z M258.8,108.7V47.6h15.4v61.1H258.8z"/>
		</g>
		<g>
			<path fill="#FFFFFF" d="M307.1,108.7h-15.4V47.6h14.9V58c2.8-7.1,10.8-11.9,20.3-11.9c14.7,0,22.9,10.8,22.9,26v36.6h-15.4v-34
				c0-8.7-3.9-15.1-13.1-15.1c-8.4,0-14.2,6.1-14.2,14.9V108.7z"/>
		</g>
		<g>
			<path fill="#FFFFFF" d="M381.6,108.7h-15.4V47.6h14.9V58c2.8-7.1,10.8-11.9,20.3-11.9c14.7,0,22.9,10.8,22.9,26v36.6h-15.4v-34
				c0-8.7-3.9-15.1-13.1-15.1c-8.4,0-14.2,6.1-14.2,14.9V108.7z"/>
		</g>
		<g>
			<path fill="#FFFFFF" d="M448.8,19.2c5.3,0,9.2,4,9.2,9.1c0,5.1-3.9,9.1-9.2,9.1c-5.1,0-9.2-3.9-9.2-9.1
				C439.6,23.2,443.6,19.2,448.8,19.2z M441.1,108.7V47.6h15.4v61.1H441.1z"/>
		</g>
	</g>
	<g>
		<g>
			<ellipse fill="#A780F5" cx="73.6" cy="63.5" rx="25.2" ry="63.5"/>
		</g>
	</g>
	<g>
		<g>
			<path fill="#B5BFFF" d="M48.4,63.5c0-17.2,2.7-32.7,7.1-44.2c-3.3-3.1-7-4.9-10.9-4.9c-13.8,0-25,21.9-25,49
				c0,27.1,11.2,49,25,49c3.9,0,7.6-1.7,10.9-4.9C51,96.2,48.4,80.6,48.4,63.5z"/>
		</g>
	</g>
	<g>
		<g>
			<ellipse fill="#BABA00" cx="18.5" cy="63.1" rx="18.5" ry="31.9"/>
		</g>
	</g>
	<g>
		<g>
			<path fill="#EDE700" d="M37,63.1c0,13.9-5.2,25.8-12.4,30.1c-3.2-8.2-5.1-18.5-5.1-29.7c0-11.5,2-22,5.4-30.4
				C32,37.6,37,49.3,37,63.1z"/>
		</g>
	</g>
	<g>
		<g>
			<path fill="#D7DEFF" d="M55.4,19.4c-4.4,11.4-7.1,27-7.1,44.2c0,17.1,2.7,32.6,7,44.1c8.4-7.9,14.1-24.7,14.1-44.1
				C69.5,44.1,63.8,27.3,55.4,19.4z"/>
		</g>
	</g>
	<g>
		<g>
			<path fill="#FF92DD" d="M98.6,63.5c0-17.2-2.7-32.7-7.1-44.2c3.3-3.1,7-4.9,10.9-4.9c13.8,0,25,21.9,25,49c0,27.1-11.2,49-25,49
				c-3.9,0-7.6-1.7-10.9-4.9C95.9,96.2,98.6,80.6,98.6,63.5z"/>
		</g>
	</g>
	<g>
		<g>
			<ellipse fill="#FF4131" cx="128.5" cy="63.1" rx="18.5" ry="31.9"/>
		</g>
	</g>
	<g>
		<g>
			<path fill="#F8827D" d="M110,63.1c0,13.9,5.2,25.8,12.4,30.1c3.2-8.2,5.1-18.5,5.1-29.7c0-11.5-2-22-5.4-30.4
				C115,37.6,110,49.3,110,63.1z"/>
		</g>
	</g>
	<g>
		<g>
			<path fill="#FFC1EE" d="M91.5,19.4c4.4,11.4,7.1,27,7.1,44.2c0,17.1-2.7,32.6-7,44.1c-8.4-7.9-14.1-24.7-14.1-44.1
				C77.4,44.1,83.2,27.3,91.5,19.4z"/>
		</g>
	</g>
</g>
</svg>
