<?xml version="1.0" encoding="utf-8"?>
<!-- Generator: Adobe Illustrator 30.0.0, SVG Export Plug-In . SVG Version: 9.03 Build 0)  -->
<svg version="1.1" baseProfile="tiny" id="Layer_1" xmlns="http://www.w3.org/2000/svg" xmlns:xlink="http://www.w3.org/1999/xlink"
	 x="0px" y="0px" viewBox="0 0 667.1 65.6" overflow="visible" xml:space="preserve">
<g>
	<g>
		<path fill="#FFFFFF" d="M68.8,51.2V3.4h29.7v7.5H77.3v12.6h20.6v7.4H77.3v20.4H68.8z"/>
		<path fill="#FFFFFF" d="M109.5,3.4c2.8,0,4.9,2.2,4.9,4.8c0,2.7-2.1,4.8-4.9,4.8c-2.7,0-4.9-2.1-4.9-4.8
			C104.6,5.5,106.7,3.4,109.5,3.4z M105.4,51.2V18.5h8.2v32.7H105.4z"/>
		<path fill="#FFFFFF" d="M131.2,51.2h-8.2V18.5h8v5.6c1.5-3.8,5.8-6.4,10.9-6.4c7.9,0,12.2,5.8,12.2,13.9v19.6h-8.2V33
			c0-4.6-2.1-8.1-7-8.1c-4.5,0-7.6,3.3-7.6,8V51.2z"/>
		<path fill="#FFFFFF" d="M171,51.2h-8.2V18.5h8v5.6c1.5-3.8,5.8-6.4,10.9-6.4c7.9,0,12.2,5.8,12.2,13.9v19.6h-8.2V33
			c0-4.6-2.1-8.1-7-8.1c-4.5,0-7.6,3.3-7.6,8V51.2z"/>
		<path fill="#FFFFFF" d="M208.6,37.7c0.5,4.9,3.7,8.2,9.5,8.2c4,0,7.1-1.8,8.6-4.3h7.7c-2.2,5.8-8.5,10.3-16.3,10.3
			c-11.1,0-17.6-7.4-17.6-17.2c0-9.9,7.1-17.1,17.2-17.1c10.3,0,17.2,7.1,17.2,17.2v2.7H208.6z M208.5,32.2H227
			c-0.5-5-3.9-8.6-9.2-8.6C212.7,23.7,209.2,26.9,208.5,32.2z"/>
		<path fill="#FFFFFF" d="M267.6,24.3v-5.8h8.1v32.2c0,8.4-7.7,14.9-17.8,14.9c-8.4,0-15.1-3.7-17.5-11.2h8.2
			c1.6,3.1,4.6,4.8,9.3,4.8c5.6,0,9.6-3.1,9.6-8.5v-6.4c-1.9,3.3-6.1,6-11.5,6c-9.7,0-16.2-7.3-16.2-16.3c0-9.1,6.5-16.4,16.2-16.4
			C261.7,17.8,266.1,20.6,267.6,24.3z M267.5,34.1c0-5.8-4.5-9.6-9.9-9.6c-5.8,0-9.6,4.1-9.6,9.6c0,5.4,3.7,9.5,9.6,9.5
			C263.1,43.6,267.5,39.8,267.5,34.1z"/>
		<path fill="#FFFFFF" d="M319.1,18.5v32.7h-7.9v-5.6c-1.9,3.3-6.2,6.4-11.9,6.4c-9.7,0-16.5-7.7-16.5-17.1
			c0-9.4,6.8-17.2,16.5-17.2c5.7,0,10.1,2.9,11.8,6.4v-5.6H319.1z M300.8,45.2c5.4,0,10-4,10-10.3s-4.6-10.3-10-10.3
			c-5.9,0-9.8,4.6-9.8,10.3C291,40.6,294.9,45.2,300.8,45.2z"/>
		<path fill="#FFFFFF" d="M336.4,51.2h-8.2V18.5h8v5.6c1.5-3.8,5.8-6.4,10.9-6.4c7.9,0,12.2,5.8,12.2,13.9v19.6H351V33
			c0-4.6-2.1-8.1-7-8.1c-4.5,0-7.6,3.3-7.6,8V51.2z"/>
		<path fill="#FFFFFF" d="M372.6,41.5c0.5,3,2.4,4.8,6,4.8c3.1,0,5.4-1.6,5.4-4.2c0-2.1-1.1-3.2-3.5-3.9l-4.8-1.3
			c-5.6-1.4-8.8-4.2-8.8-9.4c0-6,5.1-9.7,11.6-9.7c7,0,10.9,4.1,11.6,9.8h-7c-0.1-2-1.5-4-4.4-4c-2.6,0-4.3,1.4-4.3,3.5
			c0,2,1.2,2.8,3.5,3.5l5.8,1.6c5.2,1.4,7.8,4.5,7.8,9.2c0,6.5-6.2,10.7-12.8,10.7c-6.8,0-12.2-3.1-13.1-10.5H372.6z"/>
	</g>
	<g>
		<g>
			<path fill="#A780F5" d="M426.8,3.4c14.6,0,24.4,10.5,24.4,23.8c0,7.7-3.2,14.4-8.8,18.7l6,8.2h-9.2l-3.4-4.6
				c-2.3,0.9-5.8,1.5-9,1.5c-14.5,0-24.4-10.5-24.4-23.8C402.4,13.9,412.3,3.4,426.8,3.4z M433.7,34l4.1,5.6
				c3.1-3.1,4.9-7.5,4.9-12.3c0-8.8-5.9-16.5-15.8-16.5c-9.9,0-15.8,7.7-15.8,16.5c0,8.8,6,16.5,15.8,16.5c1.6,0,3-0.2,4.4-0.5
				l-6.7-9.2H433.7z"/>
		</g>
		<g>
			<path fill="#A780F5" d="M480.8,17.5h8.3v32.7h-7.9v-5.5c-1.6,3.7-5.7,6.3-10.8,6.3c-7.9,0-12.1-5.8-12.1-13.8V17.5h8.3v18.3
				c0,4.7,1.8,8.1,6.9,8.1c4.7,0,7.5-3.3,7.5-8V17.5z"/>
		</g>
		<g>
			<path fill="#A780F5" d="M502.5,2.3c2.8,0,4.9,2.2,4.9,4.8c0,2.8-2.1,4.8-4.9,4.8c-2.8,0-4.9-2.1-4.9-4.8
				C497.6,4.4,499.7,2.3,502.5,2.3z M498.4,50.1V17.5h8.3v32.7H498.4z"/>
		</g>
		<g>
			<path fill="#A780F5" d="M524.2,63.8h-8.3V17.5h7.9v5.6c1.9-3.3,6.2-6.4,11.9-6.4c9.7,0,16.5,7.7,16.5,17.2
				c0,9.4-6.8,17.1-16.5,17.1c-5.7,0-10-2.9-11.6-6.4V63.8z M534.1,23.5c-5.4,0-10,4.1-10,10.3s4.6,10.3,10,10.3
				c5.9,0,9.9-4.6,9.9-10.3S540,23.5,534.1,23.5z"/>
		</g>
		<g>
			<path fill="#A780F5" d="M567.5,63.8h-8.3V17.5h7.9v5.6c1.9-3.3,6.2-6.4,11.9-6.4c9.7,0,16.5,7.7,16.5,17.2
				c0,9.4-6.8,17.1-16.5,17.1c-5.7,0-10-2.9-11.6-6.4V63.8z M577.5,23.5c-5.4,0-10,4.1-10,10.3s4.6,10.3,10,10.3
				c5.9,0,9.9-4.6,9.9-10.3S583.4,23.5,577.5,23.5z"/>
		</g>
		<g>
			<path fill="#A780F5" d="M600.6,33.8c0-8.9,6.7-17.2,17.9-17.2c11.3,0,17.9,8.3,17.9,17.2c0,8.8-6.7,17.1-17.9,17.1
				C607.3,50.9,600.6,42.7,600.6,33.8z M608.6,33.8c0,5.3,3.5,10.2,9.9,10.2c6.4,0,9.9-4.9,9.9-10.2c0-5.3-3.5-10.3-9.9-10.3
				C612.2,23.5,608.6,28.5,608.6,33.8z"/>
		</g>
		<g>
			<path fill="#A780F5" d="M648.2,40.4c0.5,3,2.4,4.8,6,4.8c3.1,0,5.4-1.6,5.4-4.2c0-2.1-1.1-3.2-3.5-3.9l-4.8-1.3
				c-5.6-1.4-8.8-4.2-8.8-9.4c0-6,5.1-9.7,11.6-9.7c7,0,10.9,4.1,11.6,9.8h-7c-0.1-2-1.5-4-4.4-4c-2.6,0-4.3,1.4-4.3,3.5
				c0,2,1.2,2.8,3.5,3.5l5.8,1.6c5.2,1.4,7.8,4.5,7.8,9.2c0,6.5-6.2,10.7-12.8,10.7c-6.8,0-12.2-3.1-13.1-10.5H648.2z"/>
		</g>
	</g>
	<g>
		<g>
			<path fill="#A780F5" d="M33.1,45.8c0-5.9,4.7-10.6,10.4-10.6c0.7,0,1.5,0.1,2.2,0.2c1.7-3.3,2.7-7.1,2.7-11.2
				C48.4,10.8,37.6,0,24.2,0S0,10.8,0,24.2c0,13.4,10.8,24.2,24.2,24.2c3.2,0,6.2-0.6,9-1.7C33.1,46.4,33.1,46.1,33.1,45.8z
				 M24.2,34.8c-5.8,0-10.6-4.7-10.6-10.6c0-5.8,4.7-10.6,10.6-10.6c5.8,0,10.6,4.7,10.6,10.6C34.8,30.1,30.1,34.8,24.2,34.8z"/>
		</g>
		<g>
			<ellipse fill="#A780F5" cx="45.2" cy="46.7" rx="7.9" ry="8.1"/>
		</g>
	</g>
</g>
</svg>
