<?xml version="1.0" encoding="UTF-8"?>
<svg id="Layer_1" data-name="Layer 1" xmlns="http://www.w3.org/2000/svg" viewBox="0 0 247.97 57.58">
  <defs>
    <style>
      .cls-1 {
        fill: #fff;
      }
    </style>
  </defs>
  <g>
    <path class="cls-1" d="M33.5,43.7s-.05,0-.08,0c-.27-.02-.5-.18-.64-.41l-3-5.22c-3.28.17-5.63-.43-7.15-1.84-1.87-1.73-2.12-4.34-2.12-6.65v-6.76c0-4.92,4-8.92,8.92-8.92h17.76c4.92,0,8.92,4,8.92,8.92v6.3c0,5.5-2.82,8.92-7.37,8.92h-10.06l-4.58,5.38c-.16.18-.39.29-.62.29ZM30.25,36.39c.29,0,.56.16.71.41l2.67,4.65,4.07-4.78c.16-.18.38-.29.62-.29h10.44c5.31,0,5.73-5.57,5.73-7.28v-6.3c0-4.02-3.27-7.28-7.28-7.28h-17.76c-4.02,0-7.28,3.27-7.28,7.28v6.76c0,1.96.19,4.15,1.59,5.45,1.25,1.16,3.35,1.61,6.43,1.37.02,0,.04,0,.06,0Z"/>
    <circle class="cls-1" cx="31.02" cy="26.42" r="2.37"/>
    <circle class="cls-1" cx="37.97" cy="26.42" r="2.37"/>
    <circle class="cls-1" cx="44.92" cy="26.42" r="2.37"/>
  </g>
  <g>
    <path class="cls-1" d="M105.63,24.49c.75-1.28,1.77-2.27,3.05-2.99,1.28-.72,2.69-1.08,4.22-1.08,1.75,0,3.31.43,4.67,1.29,1.36.86,2.35,2.08,2.97,3.65h-3.24c-.43-.87-1.02-1.51-1.77-1.94-.76-.43-1.63-.64-2.62-.64-1.09,0-2.06.24-2.91.73s-1.52,1.19-2,2.1c-.48.91-.72,1.98-.72,3.19s.24,2.28.72,3.19c.48.91,1.15,1.62,2,2.12.85.5,1.82.75,2.91.75.99,0,1.87-.21,2.62-.64.76-.42,1.35-1.07,1.77-1.94h3.24c-.61,1.58-1.6,2.79-2.97,3.64-1.36.85-2.92,1.28-4.67,1.28-1.54,0-2.96-.36-4.23-1.08-1.28-.72-2.29-1.71-3.04-2.99s-1.12-2.72-1.12-4.33.37-3.05,1.12-4.33Z"/>
    <path class="cls-1" d="M126,36.44c-.99-.56-1.77-1.35-2.34-2.36-.57-1.02-.85-2.19-.85-3.53s.29-2.5.87-3.52,1.38-1.81,2.39-2.36c1.01-.55,2.14-.83,3.38-.83s2.37.28,3.38.83c1.01.55,1.8,1.34,2.39,2.36s.87,2.2.87,3.52-.3,2.5-.9,3.52c-.6,1.03-1.41,1.82-2.45,2.38s-2.17.84-3.42.84-2.34-.28-3.33-.84ZM131.28,34.44c.61-.33,1.1-.83,1.48-1.49.38-.66.57-1.47.57-2.41s-.18-1.75-.54-2.4c-.36-.65-.84-1.15-1.44-1.48-.6-.33-1.25-.5-1.94-.5s-1.34.17-1.93.5c-.59.33-1.06.82-1.41,1.48-.35.65-.52,1.45-.52,2.4,0,1.4.36,2.49,1.08,3.25.72.76,1.62,1.15,2.71,1.15.69,0,1.34-.17,1.95-.5Z"/>
    <path class="cls-1" d="M157.29,24.47c.81.43,1.45,1.06,1.91,1.89.46.84.7,1.84.7,3.03v7.68h-2.67v-7.28c0-1.17-.29-2.06-.87-2.68s-1.38-.93-2.39-.93-1.81.31-2.4.93c-.59.62-.89,1.52-.89,2.68v7.28h-2.67v-7.28c0-1.17-.29-2.06-.87-2.68s-1.38-.93-2.39-.93-1.81.31-2.4.93c-.59.62-.89,1.52-.89,2.68v7.28h-2.7v-13.03h2.7v1.49c.44-.54,1-.95,1.68-1.25.68-.3,1.4-.45,2.18-.45,1.04,0,1.97.22,2.79.66s1.45,1.08,1.89,1.91c.39-.79,1.01-1.41,1.84-1.88s1.73-.7,2.7-.7c1.02,0,1.94.21,2.75.64Z"/>
    <path class="cls-1" d="M175.17,31.56h-9.95c.08,1.04.46,1.88,1.16,2.51.69.63,1.54.95,2.55.95,1.45,0,2.47-.61,3.07-1.82h2.91c-.39,1.2-1.11,2.18-2.14,2.94-1.03.77-2.31,1.15-3.84,1.15-1.25,0-2.36-.28-3.35-.84-.99-.56-1.76-1.35-2.32-2.36-.56-1.02-.84-2.19-.84-3.53s.27-2.52.82-3.53c.54-1.02,1.31-1.8,2.29-2.35.98-.55,2.12-.83,3.39-.83s2.32.27,3.29.8c.96.54,1.71,1.29,2.25,2.26s.8,2.08.8,3.34c0,.49-.03.93-.09,1.32ZM172.45,29.39c-.02-.99-.37-1.79-1.06-2.39-.69-.6-1.55-.9-2.58-.9-.93,0-1.73.3-2.39.89-.66.59-1.06,1.39-1.18,2.4h7.21Z"/>
    <path class="cls-1" d="M187.24,24.47c.81.43,1.45,1.06,1.9,1.89.46.84.69,1.84.69,3.03v7.68h-2.67v-7.28c0-1.17-.29-2.06-.87-2.68s-1.38-.93-2.39-.93-1.81.31-2.4.93c-.59.62-.89,1.52-.89,2.68v7.28h-2.7v-13.03h2.7v1.49c.44-.54,1-.95,1.69-1.25.69-.3,1.41-.45,2.19-.45,1.02,0,1.94.21,2.75.64Z"/>
    <path class="cls-1" d="M196.4,26.24v7.21c0,.49.11.84.34,1.05.23.21.62.32,1.17.32h1.65v2.25h-2.13c-1.21,0-2.14-.28-2.79-.85-.65-.57-.97-1.49-.97-2.77v-7.21h-1.54v-2.2h1.54v-3.24h2.72v3.24h3.17v2.2h-3.17Z"/>
    <path class="cls-1" d="M201.97,27.02c.54-1.01,1.28-1.79,2.22-2.35.94-.56,1.97-.84,3.11-.84,1.02,0,1.92.2,2.68.6s1.37.9,1.83,1.5v-1.89h2.72v13.03h-2.72v-1.94c-.46.62-1.08,1.13-1.87,1.54-.79.41-1.69.62-2.7.62-1.12,0-2.14-.29-3.07-.86-.93-.57-1.67-1.38-2.21-2.41-.54-1.03-.82-2.2-.82-3.51s.27-2.47.82-3.47ZM211.26,28.2c-.37-.66-.86-1.17-1.45-1.51-.6-.35-1.25-.52-1.94-.52s-1.34.17-1.94.51c-.6.34-1.08.84-1.45,1.49-.37.65-.56,1.43-.56,2.33s.19,1.69.56,2.36c.37.68.86,1.19,1.47,1.55s1.25.53,1.93.53,1.34-.17,1.94-.52c.6-.35,1.08-.85,1.45-1.52.37-.67.56-1.45.56-2.35s-.19-1.68-.56-2.34Z"/>
    <path class="cls-1" d="M222.35,24.39c.65-.37,1.43-.55,2.33-.55v2.79h-.69c-1.06,0-1.86.27-2.4.8-.54.54-.82,1.47-.82,2.79v6.86h-2.7v-13.03h2.7v1.89c.39-.66.92-1.18,1.57-1.55Z"/>
  </g>
  <path class="cls-1" d="M229.75,57.58H18.22C8.18,57.58,0,49.4,0,39.36v-21.13C0,8.18,8.18,0,18.22,0h211.52c10.05,0,18.22,8.18,18.22,18.23v21.13c0,10.05-8.18,18.23-18.22,18.23ZM18.22,2.06C9.31,2.06,2.06,9.31,2.06,18.23v21.13c0,8.91,7.25,16.16,16.16,16.16h211.52c8.91,0,16.16-7.25,16.16-16.16v-21.13c0-8.91-7.25-16.16-16.16-16.16H18.22Z"/>
</svg>