<?xml version="1.0" encoding="UTF-8"?>
<svg id="Layer_1" data-name="Layer 1" xmlns="http://www.w3.org/2000/svg" viewBox="0 0 255.55 169.92">
  <defs>
    <style>
      .cls-1 {
        fill: #e6e6e6;
      }

      .cls-2 {
        fill: #b7b7b7;
      }

      .cls-3 {
        fill: #fff;
      }

      .cls-4 {
        fill: #27067f;
      }
    </style>
  </defs>
  <rect class="cls-3" width="255.55" height="169.92" rx="18.91" ry="18.91"/>
  <rect class="cls-1" x="0" y="55.93" width="255.55" height="1.42"/>
  <rect class="cls-1" x="0" y="112.57" width="255.55" height="1.42"/>
  <g>
    <path class="cls-4" d="M37.03,23.66l-6.06,16.06h-2.42l-6.06-16.06h2.23l5.05,13.85,5.05-13.85h2.21Z"/>
    <path class="cls-4" d="M39.34,29.96c.52-.98,1.24-1.73,2.15-2.27.91-.54,1.93-.81,3.05-.81s2.07.24,2.88.71c.81.48,1.42,1.08,1.82,1.8v-2.3h2.12v12.63h-2.12v-2.35c-.41.74-1.03,1.35-1.85,1.83-.82.48-1.78.73-2.87.73s-2.14-.28-3.04-.83-1.62-1.33-2.14-2.33c-.52-1-.78-2.13-.78-3.41s.26-2.42.78-3.4ZM48.67,30.9c-.38-.71-.9-1.25-1.56-1.62-.65-.38-1.37-.56-2.15-.56s-1.5.18-2.14.55c-.65.37-1.16.91-1.54,1.61-.38.71-.58,1.54-.58,2.49s.19,1.81.58,2.52c.38.71.9,1.26,1.54,1.64.65.38,1.36.56,2.14.56s1.5-.19,2.15-.56c.65-.38,1.17-.92,1.56-1.64.38-.71.58-1.55.58-2.5s-.19-1.78-.58-2.49Z"/>
    <path class="cls-4" d="M54.91,29.96c.52-.98,1.25-1.73,2.18-2.27.93-.54,1.99-.81,3.19-.81,1.55,0,2.83.38,3.84,1.13s1.67,1.8,1.99,3.13h-2.26c-.22-.77-.63-1.37-1.26-1.82-.62-.45-1.39-.67-2.32-.67-1.2,0-2.17.41-2.9,1.23-.74.82-1.11,1.99-1.11,3.49s.37,2.7,1.11,3.53c.74.83,1.7,1.24,2.9,1.24.92,0,1.69-.21,2.3-.65.61-.43,1.04-1.04,1.27-1.84h2.26c-.34,1.29-1.01,2.32-2.03,3.1-1.01.78-2.28,1.16-3.8,1.16-1.2,0-2.26-.27-3.19-.81-.93-.54-1.66-1.3-2.18-2.28-.52-.98-.78-2.13-.78-3.46s.26-2.45.78-3.42Z"/>
    <path class="cls-4" d="M68.89,29.96c.52-.98,1.24-1.73,2.15-2.27.91-.54,1.93-.81,3.05-.81s2.07.24,2.88.71c.81.48,1.42,1.08,1.82,1.8v-2.3h2.12v12.63h-2.12v-2.35c-.41.74-1.03,1.35-1.85,1.83-.82.48-1.78.73-2.87.73s-2.14-.28-3.04-.83-1.62-1.33-2.14-2.33c-.52-1-.78-2.13-.78-3.41s.26-2.42.78-3.4ZM78.23,30.9c-.38-.71-.9-1.25-1.56-1.62-.65-.38-1.37-.56-2.15-.56s-1.5.18-2.14.55c-.65.37-1.16.91-1.54,1.61-.38.71-.58,1.54-.58,2.49s.19,1.81.58,2.52c.38.71.9,1.26,1.54,1.64.65.38,1.36.56,2.14.56s1.5-.19,2.15-.56c.65-.38,1.17-.92,1.56-1.64.38-.71.58-1.55.58-2.5s-.19-1.78-.58-2.49Z"/>
    <path class="cls-4" d="M84.47,29.96c.52-.98,1.25-1.73,2.18-2.27.93-.54,1.99-.81,3.19-.81,1.55,0,2.83.38,3.84,1.13s1.67,1.8,1.99,3.13h-2.26c-.22-.77-.63-1.37-1.26-1.82-.62-.45-1.39-.67-2.32-.67-1.2,0-2.17.41-2.9,1.23-.74.82-1.11,1.99-1.11,3.49s.37,2.7,1.11,3.53c.74.83,1.7,1.24,2.9,1.24.92,0,1.69-.21,2.3-.65.61-.43,1.04-1.04,1.27-1.84h2.26c-.34,1.29-1.01,2.32-2.03,3.1-1.01.78-2.28,1.16-3.8,1.16-1.2,0-2.26-.27-3.19-.81-.93-.54-1.66-1.3-2.18-2.28-.52-.98-.78-2.13-.78-3.46s.26-2.45.78-3.42Z"/>
    <path class="cls-4" d="M98.52,24.63c-.28-.28-.42-.61-.42-1.01s.14-.74.42-1.01c.28-.28.61-.41,1.01-.41s.71.14.98.41c.27.28.4.61.4,1.01s-.13.74-.4,1.01c-.27.28-.6.41-.98.41s-.74-.14-1.01-.41ZM100.55,27.09v12.63h-2.1v-12.63h2.1Z"/>
    <path class="cls-4" d="M106.41,39.12c-.96-.54-1.71-1.3-2.26-2.29-.55-.99-.82-2.14-.82-3.44s.28-2.43.84-3.42c.56-.99,1.32-1.75,2.29-2.28.97-.53,2.05-.79,3.25-.79s2.28.26,3.25.79c.97.53,1.73,1.29,2.29,2.27.56.98.84,2.13.84,3.43s-.29,2.45-.86,3.44c-.58.99-1.36,1.76-2.34,2.29-.98.54-2.07.81-3.27.81s-2.25-.27-3.21-.81ZM111.75,37.55c.66-.35,1.19-.88,1.6-1.59.41-.71.61-1.57.61-2.58s-.2-1.87-.6-2.58-.92-1.23-1.57-1.58c-.65-.35-1.34-.52-2.1-.52s-1.47.17-2.11.52-1.15.87-1.53,1.58c-.38.71-.58,1.57-.58,2.58s.19,1.9.56,2.6c.38.71.88,1.23,1.51,1.58.63.35,1.32.52,2.07.52s1.46-.18,2.12-.53Z"/>
    <path class="cls-4" d="M128.75,28.26c.95.93,1.43,2.27,1.43,4.02v7.44h-2.07v-7.14c0-1.26-.31-2.22-.94-2.89-.63-.67-1.49-1-2.58-1s-1.99.35-2.64,1.04c-.65.69-.98,1.7-.98,3.02v6.98h-2.1v-12.63h2.1v1.8c.41-.65.98-1.14,1.69-1.5s1.5-.53,2.36-.53c1.54,0,2.78.46,3.73,1.39Z"/>
    <path class="cls-4" d="M145.06,34.19h-10.09c.08,1.24.5,2.22,1.28,2.91.78.7,1.72,1.05,2.82,1.05.91,0,1.66-.21,2.27-.63s1.03-.99,1.28-1.69h2.26c-.34,1.21-1.01,2.2-2.03,2.96s-2.27,1.14-3.78,1.14c-1.2,0-2.27-.27-3.21-.81-.94-.54-1.69-1.3-2.22-2.29-.54-.99-.81-2.14-.81-3.44s.26-2.45.78-3.43c.52-.98,1.26-1.74,2.2-2.27.94-.53,2.03-.79,3.26-.79s2.26.26,3.18.78c.92.52,1.63,1.24,2.13,2.15.5.91.75,1.95.75,3.1,0,.4-.02.82-.07,1.27ZM142.44,30.42c-.35-.58-.83-1.01-1.44-1.31-.61-.3-1.28-.45-2.02-.45-1.06,0-1.96.34-2.71,1.01-.75.68-1.17,1.61-1.28,2.81h7.97c0-.8-.18-1.49-.53-2.06Z"/>
    <path class="cls-4" d="M149.76,39.43c-.77-.33-1.37-.79-1.82-1.38-.45-.59-.69-1.27-.74-2.04h2.17c.06.63.36,1.14.89,1.54.53.4,1.22.6,2.08.6.8,0,1.43-.18,1.89-.53.46-.35.69-.8.69-1.34s-.25-.96-.74-1.23c-.49-.27-1.25-.53-2.28-.79-.94-.25-1.7-.5-2.29-.75s-1.1-.63-1.52-1.13-.63-1.16-.63-1.97c0-.65.19-1.24.58-1.77s.93-.96,1.64-1.28,1.51-.47,2.42-.47c1.4,0,2.53.35,3.39,1.06.86.71,1.32,1.67,1.38,2.9h-2.1c-.05-.66-.31-1.19-.79-1.59s-1.13-.6-1.95-.6c-.75,0-1.35.16-1.8.48-.45.32-.67.75-.67,1.27,0,.41.13.76.4,1.02.27.27.61.48,1.01.65.41.16.97.34,1.69.54.91.25,1.64.49,2.21.73.57.24,1.06.6,1.46,1.07.41.48.62,1.1.63,1.87,0,.69-.19,1.31-.58,1.87-.38.55-.93.99-1.62,1.3-.7.31-1.5.47-2.41.47-.97,0-1.84-.17-2.6-.5Z"/>
  </g>
  <g>
    <path class="cls-4" d="M25.86,91.68h5.62v1.71h-7.72v-16.06h2.1v14.35Z"/>
    <path class="cls-4" d="M33.78,78.29c-.28-.28-.42-.61-.42-1.01s.14-.74.42-1.01c.28-.28.61-.41,1.01-.41s.71.14.98.41c.27.28.4.61.4,1.01s-.13.74-.4,1.01c-.27.28-.6.41-.98.41s-.74-.14-1.01-.41ZM35.81,80.76v12.62h-2.1v-12.62h2.1Z"/>
    <path class="cls-4" d="M39.38,83.63c.52-.98,1.25-1.73,2.18-2.27.93-.54,1.99-.81,3.19-.81,1.55,0,2.83.38,3.84,1.13,1.01.75,1.67,1.8,1.99,3.13h-2.26c-.22-.77-.63-1.37-1.26-1.82-.62-.45-1.39-.67-2.32-.67-1.2,0-2.17.41-2.9,1.23-.74.82-1.11,1.99-1.11,3.49s.37,2.7,1.11,3.53,1.7,1.24,2.9,1.24c.92,0,1.69-.21,2.3-.65.61-.43,1.04-1.04,1.27-1.84h2.26c-.34,1.29-1.01,2.32-2.03,3.1-1.01.78-2.28,1.16-3.8,1.16-1.2,0-2.26-.27-3.19-.81-.93-.54-1.66-1.3-2.18-2.28-.52-.98-.78-2.13-.78-3.46s.26-2.45.78-3.42Z"/>
    <path class="cls-4" d="M64.82,87.86h-10.09c.08,1.24.5,2.22,1.28,2.92.78.7,1.72,1.05,2.82,1.05.91,0,1.66-.21,2.27-.63.61-.42,1.03-.99,1.28-1.69h2.26c-.34,1.21-1.01,2.2-2.03,2.96-1.01.76-2.27,1.14-3.78,1.14-1.2,0-2.27-.27-3.21-.81-.94-.54-1.69-1.3-2.22-2.29-.54-.99-.81-2.14-.81-3.44s.26-2.45.78-3.43c.52-.98,1.26-1.74,2.2-2.27.94-.53,2.03-.79,3.26-.79s2.26.26,3.18.78,1.63,1.24,2.13,2.15c.5.91.75,1.95.75,3.1,0,.4-.02.82-.07,1.27ZM62.19,84.09c-.35-.58-.83-1.01-1.44-1.31-.61-.3-1.28-.45-2.02-.45-1.06,0-1.96.34-2.71,1.01-.75.68-1.17,1.61-1.28,2.81h7.97c0-.8-.18-1.49-.53-2.06Z"/>
    <path class="cls-4" d="M77.53,81.92c.95.93,1.43,2.27,1.43,4.02v7.44h-2.07v-7.14c0-1.26-.31-2.22-.94-2.89s-1.49-1-2.58-1-1.99.35-2.64,1.04c-.65.69-.98,1.7-.98,3.02v6.98h-2.1v-12.62h2.1v1.8c.41-.65.98-1.14,1.69-1.5s1.5-.53,2.36-.53c1.54,0,2.78.46,3.73,1.39Z"/>
    <path class="cls-4" d="M82.4,83.63c.52-.98,1.25-1.73,2.18-2.27.93-.54,1.99-.81,3.19-.81,1.55,0,2.83.38,3.84,1.13,1.01.75,1.67,1.8,1.99,3.13h-2.26c-.22-.77-.63-1.37-1.26-1.82-.62-.45-1.39-.67-2.32-.67-1.2,0-2.17.41-2.9,1.23-.74.82-1.11,1.99-1.11,3.49s.37,2.7,1.11,3.53,1.7,1.24,2.9,1.24c.92,0,1.69-.21,2.3-.65.61-.43,1.04-1.04,1.27-1.84h2.26c-.34,1.29-1.01,2.32-2.03,3.1-1.01.78-2.28,1.16-3.8,1.16-1.2,0-2.26-.27-3.19-.81-.93-.54-1.66-1.3-2.18-2.28-.52-.98-.78-2.13-.78-3.46s.26-2.45.78-3.42Z"/>
    <path class="cls-4" d="M96.45,78.29c-.28-.28-.42-.61-.42-1.01s.14-.74.42-1.01c.28-.28.61-.41,1.01-.41s.71.14.98.41c.27.28.4.61.4,1.01s-.13.74-.4,1.01c-.27.28-.6.41-.98.41s-.74-.14-1.01-.41ZM98.48,80.76v12.62h-2.1v-12.62h2.1Z"/>
    <path class="cls-4" d="M102.05,83.63c.52-.98,1.24-1.73,2.15-2.27.91-.54,1.93-.81,3.05-.81s2.07.24,2.88.71c.81.48,1.42,1.08,1.82,1.8v-2.3h2.12v12.62h-2.12v-2.35c-.41.74-1.03,1.35-1.85,1.83-.82.48-1.78.73-2.87.73s-2.14-.28-3.04-.83-1.62-1.33-2.14-2.33c-.52-1-.78-2.13-.78-3.41s.26-2.42.78-3.4ZM111.38,84.56c-.38-.71-.9-1.25-1.56-1.62-.65-.38-1.37-.56-2.15-.56s-1.5.18-2.14.55c-.65.37-1.16.91-1.54,1.61-.38.71-.58,1.54-.58,2.49s.19,1.81.58,2.52c.38.71.9,1.26,1.54,1.64.65.38,1.36.56,2.14.56s1.5-.19,2.15-.56c.65-.38,1.17-.92,1.56-1.64.38-.71.58-1.55.58-2.5s-.19-1.78-.58-2.49Z"/>
    <path class="cls-4" d="M119.49,93.1c-.77-.33-1.37-.79-1.82-1.38-.45-.59-.69-1.27-.74-2.04h2.17c.06.63.36,1.14.89,1.54.53.4,1.22.6,2.08.6.8,0,1.43-.18,1.89-.53.46-.35.69-.8.69-1.34s-.25-.96-.74-1.23-1.25-.53-2.28-.79c-.94-.25-1.7-.5-2.29-.75-.59-.25-1.1-.63-1.52-1.13s-.63-1.16-.63-1.97c0-.64.19-1.24.58-1.77.38-.54.93-.96,1.64-1.28.71-.31,1.51-.47,2.42-.47,1.4,0,2.53.35,3.39,1.06.86.71,1.32,1.67,1.38,2.9h-2.1c-.05-.66-.31-1.19-.79-1.59s-1.13-.6-1.95-.6c-.75,0-1.35.16-1.8.48-.45.32-.67.75-.67,1.27,0,.42.13.76.4,1.03.27.27.61.48,1.01.65.41.16.97.34,1.69.54.91.25,1.64.49,2.21.73.57.24,1.06.6,1.46,1.07.41.48.62,1.1.63,1.87,0,.69-.19,1.31-.58,1.87-.38.55-.93.99-1.62,1.3-.7.31-1.5.47-2.41.47-.97,0-1.84-.17-2.6-.5Z"/>
  </g>
  <g>
    <path class="cls-4" d="M33.13,140.47c-.91.88-2.31,1.32-4.18,1.32h-3.09v6.71h-2.1v-16.06h5.18c1.81,0,3.19.44,4.14,1.31.94.88,1.42,2,1.42,3.39s-.46,2.45-1.37,3.33ZM31.53,139.31c.55-.51.83-1.23.83-2.17,0-1.98-1.14-2.97-3.41-2.97h-3.09v5.9h3.09c1.17,0,2.03-.25,2.58-.76Z"/>
    <path class="cls-4" d="M48.55,142.97h-10.09c.08,1.24.5,2.22,1.28,2.91.78.7,1.72,1.05,2.82,1.05.91,0,1.66-.21,2.27-.63.61-.42,1.03-.99,1.28-1.69h2.26c-.34,1.21-1.01,2.2-2.03,2.96-1.01.76-2.27,1.14-3.78,1.14-1.2,0-2.27-.27-3.21-.81-.94-.54-1.69-1.3-2.22-2.29s-.81-2.14-.81-3.44.26-2.45.78-3.43c.52-.98,1.26-1.74,2.2-2.27.94-.53,2.03-.79,3.26-.79s2.26.26,3.18.78c.92.52,1.63,1.24,2.13,2.15.5.91.75,1.95.75,3.1,0,.4-.02.82-.07,1.27ZM45.93,139.2c-.35-.58-.83-1.01-1.44-1.31-.61-.3-1.28-.45-2.02-.45-1.06,0-1.96.34-2.71,1.01-.75.68-1.17,1.61-1.28,2.81h7.97c0-.8-.18-1.49-.53-2.06Z"/>
    <path class="cls-4" d="M55.06,136.24c.68-.4,1.52-.6,2.5-.6v2.17h-.55c-2.35,0-3.52,1.28-3.52,3.82v6.87h-2.1v-12.63h2.1v2.05c.37-.72.89-1.28,1.58-1.68Z"/>
    <path class="cls-4" d="M77.79,136.25c.77.41,1.37,1.02,1.82,1.83.45.81.67,1.8.67,2.97v7.44h-2.07v-7.14c0-1.26-.31-2.22-.93-2.89-.62-.67-1.46-1-2.52-1s-1.96.35-2.6,1.05-.97,1.71-.97,3.03v6.96h-2.07v-7.14c0-1.26-.31-2.22-.93-2.89-.62-.67-1.46-1-2.52-1s-1.96.35-2.6,1.05c-.65.7-.97,1.71-.97,3.03v6.96h-2.1v-12.63h2.1v1.82c.41-.66.97-1.17,1.67-1.52.7-.35,1.47-.53,2.32-.53,1.06,0,2,.24,2.81.71.81.48,1.42,1.17,1.82,2.1.35-.89.94-1.58,1.75-2.07.81-.49,1.72-.74,2.72-.74s1.86.2,2.63.61Z"/>
    <path class="cls-4" d="M83.78,133.41c-.28-.28-.42-.61-.42-1.01s.14-.74.42-1.01.61-.42,1.01-.42.71.14.98.42c.27.28.4.61.4,1.01s-.13.74-.4,1.01c-.27.28-.6.42-.98.42s-.74-.14-1.01-.42ZM85.81,135.87v12.63h-2.1v-12.63h2.1Z"/>
    <path class="cls-4" d="M91.24,148.21c-.77-.33-1.37-.79-1.82-1.38-.45-.59-.69-1.27-.74-2.04h2.17c.06.63.36,1.14.89,1.54.53.4,1.22.6,2.08.6.8,0,1.43-.18,1.89-.53.46-.35.69-.8.69-1.34s-.25-.96-.74-1.23c-.49-.27-1.25-.53-2.28-.79-.94-.25-1.7-.5-2.29-.75-.59-.25-1.1-.63-1.52-1.13s-.63-1.16-.63-1.97c0-.65.19-1.24.58-1.77.38-.54.93-.96,1.64-1.28.71-.32,1.51-.47,2.42-.47,1.4,0,2.53.35,3.39,1.06.86.71,1.32,1.67,1.38,2.9h-2.1c-.05-.66-.31-1.19-.79-1.59s-1.13-.6-1.95-.6c-.75,0-1.35.16-1.8.48-.45.32-.67.75-.67,1.27,0,.41.13.76.4,1.02.27.27.61.48,1.01.65.41.16.97.34,1.69.54.91.25,1.64.49,2.21.73.57.24,1.06.59,1.46,1.07.41.48.62,1.1.63,1.87,0,.69-.19,1.31-.58,1.87-.38.55-.93.99-1.62,1.3-.7.32-1.5.47-2.41.47-.97,0-1.84-.17-2.6-.5Z"/>
    <path class="cls-4" d="M103.69,147.9c-.96-.54-1.71-1.3-2.26-2.29-.55-.99-.82-2.14-.82-3.44s.28-2.43.84-3.42c.56-.99,1.32-1.75,2.29-2.28s2.05-.79,3.25-.79,2.28.26,3.25.79c.97.53,1.73,1.29,2.29,2.27.56.98.84,2.13.84,3.43s-.29,2.45-.86,3.44c-.58.99-1.36,1.75-2.34,2.29-.98.54-2.07.81-3.27.81s-2.25-.27-3.21-.81ZM109.03,146.33c.66-.35,1.19-.88,1.6-1.59.41-.71.61-1.57.61-2.58s-.2-1.87-.6-2.58c-.4-.71-.92-1.23-1.57-1.58-.65-.35-1.34-.52-2.1-.52s-1.47.17-2.11.52-1.15.87-1.53,1.58c-.38.71-.58,1.57-.58,2.58s.19,1.9.56,2.6c.38.71.88,1.23,1.51,1.58.63.35,1.32.52,2.07.52s1.46-.18,2.12-.53Z"/>
    <path class="cls-4" d="M118.01,148.21c-.77-.33-1.37-.79-1.82-1.38-.45-.59-.69-1.27-.74-2.04h2.17c.06.63.36,1.14.89,1.54.53.4,1.22.6,2.08.6.8,0,1.43-.18,1.89-.53.46-.35.69-.8.69-1.34s-.25-.96-.74-1.23c-.49-.27-1.25-.53-2.28-.79-.94-.25-1.7-.5-2.29-.75-.59-.25-1.1-.63-1.52-1.13s-.63-1.16-.63-1.97c0-.65.19-1.24.58-1.77.38-.54.93-.96,1.64-1.28.71-.32,1.51-.47,2.42-.47,1.4,0,2.53.35,3.39,1.06.86.71,1.32,1.67,1.38,2.9h-2.1c-.05-.66-.31-1.19-.79-1.59s-1.13-.6-1.95-.6c-.75,0-1.35.16-1.8.48-.45.32-.67.75-.67,1.27,0,.41.13.76.4,1.02.27.27.61.48,1.01.65.41.16.97.34,1.69.54.91.25,1.64.49,2.21.73.57.24,1.06.59,1.46,1.07.41.48.62,1.1.63,1.87,0,.69-.19,1.31-.58,1.87-.38.55-.93.99-1.62,1.3-.7.32-1.5.47-2.41.47-.97,0-1.84-.17-2.6-.5Z"/>
  </g>
  <polygon class="cls-2" points="225.76 39.96 224.82 38.9 230.88 33.52 224.75 27.79 225.71 26.75 232.99 33.55 225.76 39.96"/>
  <polygon class="cls-2" points="225.76 93.24 224.82 92.18 230.88 86.8 224.75 81.07 225.71 80.03 232.99 86.83 225.76 93.24"/>
  <polygon class="cls-2" points="225.76 148.36 224.82 147.3 230.88 141.92 224.75 136.18 225.71 135.15 232.99 141.94 225.76 148.36"/>
</svg>